<svg width="470" height="210" viewBox="0 0 470 210" fill="none" xmlns="http://www.w3.org/2000/svg">
<g filter="url(#filter0_d_2110_1596)">
<g filter="url(#filter1_b_2110_1596)">
<rect x="45" y="35" width="370" height="110" rx="20" fill="white"/>
</g>
<path d="M151.864 84.24C150.712 84.24 149.608 84.072 148.552 83.736C147.512 83.384 146.648 82.912 145.96 82.32L146.968 79.968C148.408 81.088 150.008 81.648 151.768 81.648C153.928 81.648 155.008 80.8 155.008 79.104C155.008 78.304 154.736 77.712 154.192 77.328C153.664 76.928 152.888 76.728 151.864 76.728H149.152V74.184H151.576C152.472 74.184 153.184 73.968 153.712 73.536C154.24 73.088 154.504 72.472 154.504 71.688C154.504 70.952 154.256 70.392 153.76 70.008C153.28 69.624 152.576 69.432 151.648 69.432C149.984 69.432 148.52 70.008 147.256 71.16L146.248 68.856C146.92 68.216 147.76 67.72 148.768 67.368C149.776 67.016 150.824 66.84 151.912 66.84C153.672 66.84 155.04 67.24 156.016 68.04C156.992 68.824 157.48 69.92 157.48 71.328C157.48 72.24 157.248 73.04 156.784 73.728C156.32 74.416 155.688 74.912 154.888 75.216C155.864 75.488 156.624 75.992 157.168 76.728C157.712 77.448 157.984 78.328 157.984 79.368C157.984 80.872 157.44 82.064 156.352 82.944C155.264 83.808 153.768 84.24 151.864 84.24ZM167.071 84.24C165.071 84.24 163.543 83.488 162.487 81.984C161.431 80.464 160.903 78.304 160.903 75.504C160.903 72.672 161.431 70.52 162.487 69.048C163.543 67.576 165.071 66.84 167.071 66.84C169.087 66.84 170.615 67.576 171.655 69.048C172.711 70.52 173.239 72.664 173.239 75.48C173.239 78.296 172.711 80.464 171.655 81.984C170.599 83.488 169.071 84.24 167.071 84.24ZM167.071 81.72C168.159 81.72 168.959 81.224 169.471 80.232C169.999 79.224 170.263 77.64 170.263 75.48C170.263 73.336 169.999 71.784 169.471 70.824C168.959 69.848 168.159 69.36 167.071 69.36C165.999 69.36 165.199 69.848 164.671 70.824C164.143 71.784 163.879 73.336 163.879 75.48C163.879 77.64 164.143 79.224 164.671 80.232C165.199 81.224 165.999 81.72 167.071 81.72ZM182.133 84.672L180.165 83.52L190.053 66.408L191.997 67.56L182.133 84.672ZM180.069 77.184C178.725 77.184 177.677 76.72 176.925 75.792C176.173 74.864 175.797 73.6 175.797 72C175.797 70.4 176.173 69.144 176.925 68.232C177.677 67.304 178.725 66.84 180.069 66.84C181.413 66.84 182.461 67.304 183.213 68.232C183.965 69.144 184.341 70.4 184.341 72C184.341 73.6 183.965 74.864 183.213 75.792C182.461 76.72 181.413 77.184 180.069 77.184ZM180.069 75.168C180.645 75.168 181.093 74.912 181.413 74.4C181.733 73.872 181.893 73.072 181.893 72C181.893 70.928 181.733 70.136 181.413 69.624C181.093 69.112 180.645 68.856 180.069 68.856C179.493 68.856 179.045 69.112 178.725 69.624C178.405 70.12 178.245 70.912 178.245 72C178.245 73.088 178.405 73.888 178.725 74.4C179.045 74.912 179.493 75.168 180.069 75.168ZM192.117 84.24C190.773 84.24 189.725 83.776 188.973 82.848C188.221 81.92 187.845 80.656 187.845 79.056C187.845 77.456 188.221 76.2 188.973 75.288C189.725 74.36 190.773 73.896 192.117 73.896C193.461 73.896 194.509 74.36 195.261 75.288C196.013 76.2 196.389 77.456 196.389 79.056C196.389 80.656 196.013 81.92 195.261 82.848C194.509 83.776 193.461 84.24 192.117 84.24ZM192.117 82.224C192.693 82.224 193.141 81.968 193.461 81.456C193.781 80.928 193.941 80.128 193.941 79.056C193.941 77.984 193.781 77.192 193.461 76.68C193.141 76.168 192.693 75.912 192.117 75.912C191.541 75.912 191.093 76.168 190.773 76.68C190.453 77.176 190.293 77.968 190.293 79.056C190.293 80.144 190.453 80.944 190.773 81.456C191.093 81.968 191.541 82.224 192.117 82.224ZM210.929 84.24C209.905 84.24 209.001 83.992 208.217 83.496C207.449 83 206.849 82.296 206.417 81.384C205.985 80.456 205.769 79.368 205.769 78.12C205.769 76.856 205.985 75.776 206.417 74.88C206.849 73.968 207.449 73.264 208.217 72.768C209.001 72.272 209.905 72.024 210.929 72.024C211.761 72.024 212.513 72.208 213.185 72.576C213.857 72.944 214.361 73.432 214.697 74.04V67.08H217.697V84H214.769V82.056C214.449 82.728 213.945 83.264 213.257 83.664C212.569 84.048 211.793 84.24 210.929 84.24ZM211.769 81.96C212.665 81.96 213.385 81.64 213.929 81C214.473 80.344 214.745 79.384 214.745 78.12C214.745 76.84 214.473 75.888 213.929 75.264C213.385 74.624 212.665 74.304 211.769 74.304C210.873 74.304 210.153 74.624 209.609 75.264C209.065 75.888 208.793 76.84 208.793 78.12C208.793 79.384 209.065 80.344 209.609 81C210.153 81.64 210.873 81.96 211.769 81.96ZM221.096 69.744V66.816H224.456V69.744H221.096ZM221.288 84V72.264H224.288V84H221.288ZM232.181 84.24C231.189 84.24 230.261 84.12 229.397 83.88C228.533 83.64 227.813 83.296 227.237 82.848L228.005 80.88C228.597 81.28 229.261 81.592 229.997 81.816C230.733 82.024 231.469 82.128 232.205 82.128C232.973 82.128 233.541 82 233.909 81.744C234.293 81.472 234.485 81.12 234.485 80.688C234.485 80.016 233.989 79.584 232.997 79.392L230.597 78.936C228.565 78.552 227.549 77.496 227.549 75.768C227.549 75 227.757 74.336 228.173 73.776C228.605 73.216 229.197 72.784 229.949 72.48C230.701 72.176 231.565 72.024 232.541 72.024C233.373 72.024 234.173 72.144 234.941 72.384C235.709 72.608 236.365 72.952 236.909 73.416L236.093 75.384C235.629 75 235.069 74.696 234.413 74.472C233.773 74.248 233.157 74.136 232.565 74.136C231.781 74.136 231.197 74.272 230.813 74.544C230.445 74.816 230.261 75.176 230.261 75.624C230.261 76.328 230.717 76.76 231.629 76.92L234.029 77.376C235.069 77.568 235.853 77.92 236.381 78.432C236.925 78.944 237.197 79.632 237.197 80.496C237.197 81.664 236.741 82.584 235.829 83.256C234.917 83.912 233.701 84.24 232.181 84.24ZM245.508 84.24C244.276 84.24 243.204 83.992 242.292 83.496C241.38 82.984 240.676 82.264 240.18 81.336C239.684 80.408 239.436 79.32 239.436 78.072C239.436 76.824 239.684 75.752 240.18 74.856C240.676 73.944 241.38 73.248 242.292 72.768C243.204 72.272 244.276 72.024 245.508 72.024C246.26 72.024 247.004 72.144 247.74 72.384C248.476 72.624 249.084 72.96 249.564 73.392L248.676 75.48C248.26 75.112 247.788 74.832 247.26 74.64C246.748 74.448 246.252 74.352 245.772 74.352C244.732 74.352 243.924 74.68 243.348 75.336C242.788 75.976 242.508 76.896 242.508 78.096C242.508 79.28 242.788 80.216 243.348 80.904C243.924 81.576 244.732 81.912 245.772 81.912C246.236 81.912 246.732 81.816 247.26 81.624C247.788 81.432 248.26 81.144 248.676 80.76L249.564 82.872C249.084 83.288 248.468 83.624 247.716 83.88C246.98 84.12 246.244 84.24 245.508 84.24ZM257.002 84.24C255.786 84.24 254.73 83.992 253.834 83.496C252.938 83 252.242 82.296 251.746 81.384C251.25 80.456 251.002 79.368 251.002 78.12C251.002 76.872 251.25 75.792 251.746 74.88C252.242 73.968 252.938 73.264 253.834 72.768C254.73 72.272 255.786 72.024 257.002 72.024C258.218 72.024 259.274 72.272 260.17 72.768C261.066 73.264 261.762 73.968 262.258 74.88C262.754 75.792 263.002 76.872 263.002 78.12C263.002 79.368 262.754 80.456 262.258 81.384C261.762 82.296 261.066 83 260.17 83.496C259.274 83.992 258.218 84.24 257.002 84.24ZM257.002 81.96C257.898 81.96 258.618 81.64 259.162 81C259.706 80.344 259.978 79.384 259.978 78.12C259.978 76.84 259.706 75.888 259.162 75.264C258.618 74.624 257.898 74.304 257.002 74.304C256.106 74.304 255.386 74.624 254.842 75.264C254.298 75.888 254.026 76.84 254.026 78.12C254.026 79.384 254.298 80.344 254.842 81C255.386 81.64 256.106 81.96 257.002 81.96ZM270.206 84.24C267.326 84.24 265.886 82.624 265.886 79.392V72.264H268.886V79.44C268.886 80.272 269.054 80.888 269.39 81.288C269.726 81.688 270.262 81.888 270.998 81.888C271.798 81.888 272.454 81.616 272.966 81.072C273.478 80.512 273.734 79.776 273.734 78.864V72.264H276.734V84H273.806V82.248C273.022 83.576 271.822 84.24 270.206 84.24ZM280.337 84V72.264H283.265V74.088C283.665 73.416 284.201 72.904 284.873 72.552C285.561 72.2 286.329 72.024 287.177 72.024C289.945 72.024 291.329 73.632 291.329 76.848V84H288.329V76.992C288.329 76.08 288.153 75.416 287.801 75C287.465 74.584 286.937 74.376 286.217 74.376C285.337 74.376 284.633 74.656 284.105 75.216C283.593 75.76 283.337 76.488 283.337 77.4V84H280.337ZM300.232 84.24C297.128 84.24 295.576 82.704 295.576 79.632V74.52H293.32V72.264H295.576V68.76H298.576V72.264H302.128V74.52H298.576V79.464C298.576 80.232 298.744 80.808 299.08 81.192C299.416 81.576 299.96 81.768 300.712 81.768C300.936 81.768 301.168 81.744 301.408 81.696C301.648 81.632 301.896 81.568 302.152 81.504L302.608 83.712C302.32 83.872 301.952 84 301.504 84.096C301.072 84.192 300.648 84.24 300.232 84.24Z" fill="#595959"/>
<path d="M153.24 114.18C151.707 114.18 150.413 113.893 149.36 113.32C148.307 112.733 147.507 111.9 146.96 110.82C146.427 109.74 146.16 108.453 146.16 106.96C146.16 105.48 146.433 104.2 146.98 103.12C147.527 102.027 148.32 101.187 149.36 100.6C150.4 100.013 151.647 99.72 153.1 99.72C154.1 99.72 155.027 99.8667 155.88 100.16C156.733 100.453 157.447 100.873 158.02 101.42L157.28 103.04C156.64 102.507 155.987 102.127 155.32 101.9C154.653 101.66 153.913 101.54 153.1 101.54C151.54 101.54 150.353 102.013 149.54 102.96C148.727 103.893 148.32 105.227 148.32 106.96C148.32 108.733 148.733 110.08 149.56 111C150.4 111.92 151.653 112.38 153.32 112.38C154.333 112.38 155.34 112.213 156.34 111.88V108.1H152.9V106.54H158.08V113.18C157.48 113.473 156.733 113.713 155.84 113.9C154.96 114.087 154.093 114.18 153.24 114.18ZM161.449 114V104.24H163.409V105.98C163.916 104.82 164.969 104.173 166.569 104.04L167.229 104L167.369 105.72L166.149 105.84C164.376 106.013 163.489 106.927 163.489 108.58V114H161.449ZM173.413 114.18C172.426 114.18 171.573 113.973 170.853 113.56C170.133 113.147 169.573 112.567 169.173 111.82C168.786 111.06 168.593 110.16 168.593 109.12C168.593 108.08 168.786 107.187 169.173 106.44C169.573 105.68 170.133 105.093 170.853 104.68C171.573 104.267 172.426 104.06 173.413 104.06C174.373 104.06 175.213 104.267 175.933 104.68C176.653 105.093 177.213 105.68 177.613 106.44C178.013 107.187 178.213 108.08 178.213 109.12C178.213 110.16 178.013 111.06 177.613 111.82C177.213 112.567 176.653 113.147 175.933 113.56C175.213 113.973 174.373 114.18 173.413 114.18ZM173.413 112.62C174.24 112.62 174.906 112.32 175.413 111.72C175.92 111.12 176.173 110.253 176.173 109.12C176.173 107.987 175.92 107.127 175.413 106.54C174.906 105.94 174.24 105.64 173.413 105.64C172.573 105.64 171.9 105.94 171.393 106.54C170.886 107.127 170.633 107.987 170.633 109.12C170.633 110.253 170.886 111.12 171.393 111.72C171.9 112.32 172.573 112.62 173.413 112.62ZM185.182 114.18C184.182 114.18 183.315 113.973 182.582 113.56C181.862 113.133 181.302 112.54 180.902 111.78C180.502 111.007 180.302 110.1 180.302 109.06C180.302 107.513 180.742 106.293 181.622 105.4C182.502 104.507 183.688 104.06 185.182 104.06C185.795 104.06 186.402 104.167 187.002 104.38C187.602 104.593 188.095 104.887 188.482 105.26L187.842 106.68C187.468 106.333 187.055 106.08 186.602 105.92C186.162 105.747 185.742 105.66 185.342 105.66C184.395 105.66 183.662 105.96 183.142 106.56C182.635 107.147 182.382 107.987 182.382 109.08C182.382 110.173 182.635 111.033 183.142 111.66C183.662 112.273 184.395 112.58 185.342 112.58C185.742 112.58 186.162 112.5 186.602 112.34C187.055 112.167 187.468 111.907 187.842 111.56L188.482 113C188.095 113.36 187.595 113.647 186.982 113.86C186.382 114.073 185.782 114.18 185.182 114.18ZM195.002 114.18C193.402 114.18 192.142 113.733 191.222 112.84C190.302 111.933 189.842 110.7 189.842 109.14C189.842 108.14 190.042 107.26 190.442 106.5C190.856 105.727 191.422 105.127 192.142 104.7C192.862 104.273 193.689 104.06 194.622 104.06C195.969 104.06 197.029 104.493 197.802 105.36C198.576 106.213 198.962 107.393 198.962 108.9V109.58H191.802C191.949 111.607 193.022 112.62 195.022 112.62C195.582 112.62 196.129 112.533 196.662 112.36C197.209 112.187 197.722 111.9 198.202 111.5L198.802 112.9C198.362 113.3 197.796 113.613 197.102 113.84C196.409 114.067 195.709 114.18 195.002 114.18ZM194.702 105.48C193.862 105.48 193.196 105.74 192.702 106.26C192.209 106.78 191.909 107.473 191.802 108.34H197.262C197.222 107.433 196.982 106.733 196.542 106.24C196.102 105.733 195.489 105.48 194.702 105.48ZM201.565 114V104.24H203.525V105.98C204.031 104.82 205.085 104.173 206.685 104.04L207.345 104L207.485 105.72L206.265 105.84C204.491 106.013 203.605 106.927 203.605 108.58V114H201.565ZM211.031 117.6L212.771 113.74L208.691 104.24H210.851L213.851 111.66L216.891 104.24H218.971L213.151 117.6H211.031ZM220.625 116.46L219.745 115.78C220.052 115.447 220.278 115.14 220.425 114.86C220.572 114.58 220.665 114.293 220.705 114H219.605V111.62H221.985V113.24C221.985 113.853 221.885 114.413 221.685 114.92C221.485 115.44 221.132 115.953 220.625 116.46ZM233.825 114.18C232.758 114.18 231.958 113.88 231.425 113.28C230.905 112.68 230.645 111.8 230.645 110.64V99.9H232.665V110.52C232.665 111.84 233.205 112.5 234.285 112.5C234.445 112.5 234.592 112.493 234.725 112.48C234.872 112.467 235.018 112.44 235.165 112.4L235.125 114.02C234.672 114.127 234.238 114.18 233.825 114.18ZM240.638 114.18C238.278 114.18 237.098 112.867 237.098 110.24V104.24H239.118V110.26C239.118 111.047 239.278 111.627 239.598 112C239.918 112.373 240.425 112.56 241.118 112.56C241.878 112.56 242.492 112.307 242.958 111.8C243.438 111.293 243.678 110.613 243.678 109.76V104.24H245.698V114H243.738V112.44C243.418 113.013 242.992 113.447 242.458 113.74C241.925 114.033 241.318 114.18 240.638 114.18ZM248.945 114V104.24H250.905V105.86C251.238 105.273 251.692 104.827 252.265 104.52C252.852 104.213 253.505 104.06 254.225 104.06C256.532 104.06 257.685 105.367 257.685 107.98V114H255.665V108.1C255.665 107.26 255.498 106.647 255.165 106.26C254.845 105.873 254.338 105.68 253.645 105.68C252.832 105.68 252.178 105.94 251.685 106.46C251.205 106.967 250.965 107.64 250.965 108.48V114H248.945ZM265.168 114.18C264.168 114.18 263.302 113.973 262.568 113.56C261.848 113.133 261.288 112.54 260.888 111.78C260.488 111.007 260.288 110.1 260.288 109.06C260.288 107.513 260.728 106.293 261.608 105.4C262.488 104.507 263.675 104.06 265.168 104.06C265.782 104.06 266.388 104.167 266.988 104.38C267.588 104.593 268.082 104.887 268.468 105.26L267.828 106.68C267.455 106.333 267.042 106.08 266.588 105.92C266.148 105.747 265.728 105.66 265.328 105.66C264.382 105.66 263.648 105.96 263.128 106.56C262.622 107.147 262.368 107.987 262.368 109.08C262.368 110.173 262.622 111.033 263.128 111.66C263.648 112.273 264.382 112.58 265.328 112.58C265.728 112.58 266.148 112.5 266.588 112.34C267.042 112.167 267.455 111.907 267.828 111.56L268.468 113C268.082 113.36 267.582 113.647 266.968 113.86C266.368 114.073 265.768 114.18 265.168 114.18ZM270.604 114V99.9H272.624V105.76C272.958 105.2 273.404 104.78 273.964 104.5C274.538 104.207 275.178 104.06 275.884 104.06C278.191 104.06 279.344 105.367 279.344 107.98V114H277.324V108.1C277.324 107.26 277.158 106.647 276.824 106.26C276.504 105.873 275.998 105.68 275.304 105.68C274.491 105.68 273.838 105.94 273.344 106.46C272.864 106.967 272.624 107.64 272.624 108.48V114H270.604ZM291.302 114.18C290.622 114.18 290.015 114.047 289.482 113.78C288.948 113.513 288.522 113.153 288.202 112.7C287.895 112.247 287.742 111.733 287.742 111.16C287.742 110.44 287.922 109.873 288.282 109.46C288.655 109.047 289.262 108.747 290.102 108.56C290.955 108.373 292.102 108.28 293.542 108.28H294.222V107.76C294.222 107 294.062 106.453 293.742 106.12C293.422 105.787 292.895 105.62 292.162 105.62C291.602 105.62 291.042 105.707 290.482 105.88C289.922 106.04 289.348 106.3 288.762 106.66L288.142 105.24C288.648 104.88 289.282 104.593 290.042 104.38C290.802 104.167 291.528 104.06 292.222 104.06C293.555 104.06 294.542 104.38 295.182 105.02C295.822 105.647 296.142 106.633 296.142 107.98V114H294.242V112.38C294.002 112.94 293.628 113.38 293.122 113.7C292.615 114.02 292.008 114.18 291.302 114.18ZM291.702 112.74C292.422 112.74 293.022 112.487 293.502 111.98C293.982 111.473 294.222 110.833 294.222 110.06V109.52H293.562C292.588 109.52 291.822 109.567 291.262 109.66C290.715 109.753 290.322 109.913 290.082 110.14C289.855 110.353 289.742 110.653 289.742 111.04C289.742 111.547 289.915 111.96 290.262 112.28C290.608 112.587 291.088 112.74 291.702 112.74ZM299.324 114V104.24H301.284V105.86C301.617 105.273 302.071 104.827 302.644 104.52C303.231 104.213 303.884 104.06 304.604 104.06C306.911 104.06 308.064 105.367 308.064 107.98V114H306.044V108.1C306.044 107.26 305.877 106.647 305.544 106.26C305.224 105.873 304.717 105.68 304.024 105.68C303.211 105.68 302.557 105.94 302.064 106.46C301.584 106.967 301.344 107.64 301.344 108.48V114H299.324ZM314.967 114.18C314.114 114.18 313.361 113.98 312.707 113.58C312.067 113.167 311.567 112.58 311.207 111.82C310.847 111.06 310.667 110.16 310.667 109.12C310.667 108.08 310.847 107.187 311.207 106.44C311.567 105.68 312.067 105.093 312.707 104.68C313.347 104.267 314.101 104.06 314.967 104.06C315.701 104.06 316.354 104.22 316.927 104.54C317.501 104.86 317.927 105.293 318.207 105.84V99.9H320.227V114H318.247V112.3C317.967 112.887 317.534 113.347 316.947 113.68C316.374 114.013 315.714 114.18 314.967 114.18ZM315.487 112.62C316.314 112.62 316.981 112.32 317.487 111.72C317.994 111.12 318.247 110.253 318.247 109.12C318.247 107.987 317.994 107.127 317.487 106.54C316.981 105.94 316.314 105.64 315.487 105.64C314.647 105.64 313.974 105.94 313.467 106.54C312.961 107.127 312.707 107.987 312.707 109.12C312.707 110.253 312.961 111.12 313.467 111.72C313.974 112.32 314.647 112.62 315.487 112.62ZM329.158 114V104.24H331.118V105.82C331.411 105.26 331.818 104.827 332.338 104.52C332.858 104.213 333.464 104.06 334.158 104.06C335.651 104.06 336.618 104.713 337.058 106.02C337.364 105.407 337.804 104.927 338.378 104.58C338.951 104.233 339.604 104.06 340.338 104.06C342.524 104.06 343.618 105.367 343.618 107.98V114H341.598V108.08C341.598 107.253 341.451 106.647 341.158 106.26C340.878 105.873 340.411 105.68 339.758 105.68C339.024 105.68 338.444 105.94 338.018 106.46C337.591 106.967 337.378 107.66 337.378 108.54V114H335.358V108.08C335.358 107.253 335.218 106.647 334.938 106.26C334.658 105.873 334.191 105.68 333.538 105.68C332.804 105.68 332.224 105.94 331.798 106.46C331.384 106.967 331.178 107.66 331.178 108.54V114H329.158ZM351.082 114.18C350.095 114.18 349.242 113.973 348.522 113.56C347.802 113.147 347.242 112.567 346.842 111.82C346.455 111.06 346.262 110.16 346.262 109.12C346.262 108.08 346.455 107.187 346.842 106.44C347.242 105.68 347.802 105.093 348.522 104.68C349.242 104.267 350.095 104.06 351.082 104.06C352.042 104.06 352.882 104.267 353.602 104.68C354.322 105.093 354.882 105.68 355.282 106.44C355.682 107.187 355.882 108.08 355.882 109.12C355.882 110.16 355.682 111.06 355.282 111.82C354.882 112.567 354.322 113.147 353.602 113.56C352.882 113.973 352.042 114.18 351.082 114.18ZM351.082 112.62C351.909 112.62 352.575 112.32 353.082 111.72C353.589 111.12 353.842 110.253 353.842 109.12C353.842 107.987 353.589 107.127 353.082 106.54C352.575 105.94 351.909 105.64 351.082 105.64C350.242 105.64 349.569 105.94 349.062 106.54C348.555 107.127 348.302 107.987 348.302 109.12C348.302 110.253 348.555 111.12 349.062 111.72C349.569 112.32 350.242 112.62 351.082 112.62ZM358.55 114V104.24H360.51V105.98C361.017 104.82 362.07 104.173 363.67 104.04L364.33 104L364.47 105.72L363.25 105.84C361.477 106.013 360.59 106.927 360.59 108.58V114H358.55ZM370.855 114.18C369.255 114.18 367.995 113.733 367.075 112.84C366.155 111.933 365.695 110.7 365.695 109.14C365.695 108.14 365.895 107.26 366.295 106.5C366.708 105.727 367.275 105.127 367.995 104.7C368.715 104.273 369.541 104.06 370.475 104.06C371.821 104.06 372.881 104.493 373.655 105.36C374.428 106.213 374.815 107.393 374.815 108.9V109.58H367.655C367.801 111.607 368.875 112.62 370.875 112.62C371.435 112.62 371.981 112.533 372.515 112.36C373.061 112.187 373.575 111.9 374.055 111.5L374.655 112.9C374.215 113.3 373.648 113.613 372.955 113.84C372.261 114.067 371.561 114.18 370.855 114.18ZM370.555 105.48C369.715 105.48 369.048 105.74 368.555 106.26C368.061 106.78 367.761 107.473 367.655 108.34H373.115C373.075 107.433 372.835 106.733 372.395 106.24C371.955 105.733 371.341 105.48 370.555 105.48Z" fill="#545567"/>
<rect x="71" y="65" width="50" height="50" rx="8" fill="#D8587E"/>
<g clip-path="url(#clip0_2110_1596)">
<path fill-rule="evenodd" clip-rule="evenodd" d="M84.5452 78.0762H107.407C108.902 78.0762 108.821 78.6792 108.691 80.2173L107.841 91.0156C107.696 92.7368 107.819 92.3193 105.988 92.5806L89.174 94.7119L90.0635 97.2827C97.3582 97.2827 100.884 97.2827 108.174 97.2827C108.419 98.1958 108.753 99.6826 108.998 100.701H105.988L105.699 99.6606C99.6224 99.6606 97.3068 99.6606 91.2274 99.6606C87.9071 99.6045 88.2404 100.5 87.444 97.6416L81.7395 76.98H79V75H83.8052C84.0282 75.8325 84.3369 77.2339 84.5452 78.0762ZM92.1561 100.371C93.4376 100.371 94.479 101.409 94.479 102.686C94.479 103.965 93.4401 105 92.1561 105C90.8721 105 89.8331 103.965 89.8331 102.686C89.8331 101.409 90.8721 100.371 92.1561 100.371ZM101.737 100.371C103.019 100.371 104.06 101.409 104.06 102.686C104.06 103.965 103.019 105 101.737 105C100.453 105 99.4141 103.965 99.4141 102.686C99.4141 101.409 100.453 100.371 101.737 100.371ZM86.5472 85.5151H90.2472L88.9044 79.9219C87.5812 79.9219 86.2776 79.9194 85.001 79.9194L85.4518 81.5942L85.4666 81.5918L86.5472 85.5151ZM90.8378 79.9243L92.1806 85.5151H95.7434L94.3957 79.9292L90.8378 79.9243ZM96.334 79.9316L97.6817 85.5151H101.09L99.7474 79.9365L96.334 79.9316ZM101.686 79.939L103.028 85.5176H106.439L106.817 81.0352C106.922 79.7852 107.143 79.9438 105.927 79.9438C104.54 79.9414 103.122 79.939 101.686 79.939ZM106.319 86.936H103.369L104.342 90.979L104.582 90.9473C106.069 90.7349 105.971 91.0742 106.089 89.6753L106.319 86.936ZM102.467 91.2354L101.433 86.936H98.0272L99.1715 91.6821L102.467 91.2354ZM97.2945 91.936L96.0865 86.9336H92.5212L93.837 92.4048L97.2945 91.936ZM91.9625 92.6611L90.5878 86.936H86.9392L88.6447 93.1128L91.9625 92.6611Z" fill="white"/>
</g>
</g>
<defs>
<filter id="filter0_d_2110_1596" x="0" y="0" width="470" height="210" filterUnits="userSpaceOnUse" color-interpolation-filters="sRGB">
<feFlood flood-opacity="0" result="BackgroundImageFix"/>
<feColorMatrix in="SourceAlpha" type="matrix" values="0 0 0 0 0 0 0 0 0 0 0 0 0 0 0 0 0 0 127 0" result="hardAlpha"/>
<feOffset dx="5" dy="15"/>
<feGaussianBlur stdDeviation="25"/>
<feComposite in2="hardAlpha" operator="out"/>
<feColorMatrix type="matrix" values="0 0 0 0 0 0 0 0 0 0 0 0 0 0 0 0 0 0 0.1 0"/>
<feBlend mode="normal" in2="BackgroundImageFix" result="effect1_dropShadow_2110_1596"/>
<feBlend mode="normal" in="SourceGraphic" in2="effect1_dropShadow_2110_1596" result="shape"/>
</filter>
<filter id="filter1_b_2110_1596" x="25" y="15" width="410" height="150" filterUnits="userSpaceOnUse" color-interpolation-filters="sRGB">
<feFlood flood-opacity="0" result="BackgroundImageFix"/>
<feGaussianBlur in="BackgroundImageFix" stdDeviation="10"/>
<feComposite in2="SourceAlpha" operator="in" result="effect1_backgroundBlur_2110_1596"/>
<feBlend mode="normal" in="SourceGraphic" in2="effect1_backgroundBlur_2110_1596" result="shape"/>
</filter>
<clipPath id="clip0_2110_1596">
<rect width="30" height="30" fill="white" transform="translate(81 75)"/>
</clipPath>
</defs>
</svg>
