<svg width="390" height="122" viewBox="0 0 390 122" fill="none" xmlns="http://www.w3.org/2000/svg">
<g filter="url(#filter0_b_2110_1584)">
<rect width="390" height="113" rx="20" fill="white"/>
</g>
<g filter="url(#filter1_d_2110_1584)">
<rect x="26" y="26" width="56" height="56" rx="28" fill="#77BD74"/>
</g>
<g clip-path="url(#clip0_2110_1584)">
<path d="M38.4062 63.5164L39.7636 62.1592C39.7989 62.1239 39.8367 62.0911 39.8746 62.0583L38.9007 61.0845C38.8856 61.0693 38.873 61.0542 38.8603 61.0391C38.6181 60.7742 38.497 60.4386 38.497 60.1056C38.497 59.7524 38.6333 59.3993 38.9032 59.1293L40.2606 57.7721C40.2959 57.7367 40.3338 57.7039 40.3716 57.6711L39.3977 56.6973C39.1278 56.4274 38.9941 56.0717 38.9941 55.7185C38.9941 55.3653 39.1303 55.0121 39.3977 54.7422L40.7551 53.3849C41.0251 53.115 41.3808 52.9813 41.734 52.9813C42.0898 52.9813 42.443 53.115 42.7129 53.3849L54.624 65.295C54.894 65.5649 55.0277 65.9207 55.0277 66.2738C55.0277 66.6296 54.894 66.9827 54.624 67.2527L53.2666 68.6099C53.2515 68.6251 53.2363 68.6377 53.2212 68.6503C52.9563 68.8925 52.6207 69.0136 52.2877 69.0136C51.9345 69.0136 51.5813 68.8774 51.3113 68.6099L50.4863 67.785C50.456 67.8228 50.4232 67.8607 50.3879 67.896L49.0305 69.2533C49.0154 69.2684 49.0002 69.281 48.9851 69.2936C48.7227 69.5333 48.3872 69.6544 48.0516 69.6544C47.6959 69.6544 47.3426 69.5207 47.0752 69.2507L45.9499 68.1256C45.9197 68.1634 45.8869 68.2013 45.849 68.2366L44.4917 69.5938C44.2217 69.8638 43.866 69.9975 43.5127 69.9975C43.1595 69.9975 42.8038 69.8638 42.5338 69.5938L38.4062 65.4766C38.1362 65.2067 38 64.851 38 64.4978C38 64.1421 38.1362 63.7889 38.4062 63.5164ZM54.6139 41.2655L53.2565 42.6227L53.2439 42.6353C53.2237 42.6631 53.2136 42.6959 53.2136 42.7287C53.2136 42.7665 53.2288 42.8069 53.2565 42.8346L65.1676 54.7447C65.1953 54.7725 65.2332 54.7876 65.2735 54.7876C65.3114 54.7876 65.3518 54.7725 65.3795 54.7447L66.7369 53.3874L66.7495 53.3748C66.7697 53.3496 66.7798 53.3143 66.7798 53.2815C66.7798 53.2411 66.7672 53.2033 66.7394 53.1755L64.9405 51.3768L56.7736 43.2156L54.8258 41.268C54.7981 41.2402 54.7602 41.2251 54.7199 41.2251C54.6795 41.2226 54.6417 41.2377 54.6139 41.2655ZM56.0318 50.9353C56.3699 50.5972 56.9199 50.5972 57.2605 50.9353C57.5986 51.2734 57.5986 51.8233 57.2605 52.1639L51.3063 58.1126C50.9682 58.4507 50.4182 58.4507 50.0776 58.1126C49.7395 57.7746 49.7395 57.2246 50.0776 56.884L56.0318 50.9353ZM63.3939 40.2791L62.0365 41.6363C62.0063 41.6666 61.9911 41.7044 61.9911 41.7423C61.9911 41.7751 62.0012 41.8053 62.0214 41.8331L62.0365 41.8482L66.1541 45.9654L66.1667 45.978C66.1919 45.9982 66.2247 46.0058 66.2575 46.0058C66.2954 46.0058 66.3357 45.9906 66.3635 45.9629L67.7208 44.6056C67.7511 44.5754 67.7663 44.5375 67.7663 44.4997C67.7663 44.4618 67.7511 44.4215 67.7234 44.3937L63.6058 40.2791C63.5781 40.2513 63.5402 40.2362 63.4999 40.2362C63.4595 40.2362 63.4217 40.2513 63.3939 40.2791ZM61.1636 40.7609L62.521 39.4036C62.7909 39.1337 63.1467 39 63.4999 39C63.8531 39 64.2088 39.1337 64.4788 39.4036L68.5963 43.5208C68.8638 43.7882 69 44.144 68.9975 44.4972C68.9975 44.8529 68.8638 45.2086 68.5963 45.476L67.2389 46.8333C67.2036 46.8686 67.1658 46.9014 67.1279 46.9342L68.2532 48.0593C68.5232 48.3293 68.6569 48.685 68.6569 49.0382C68.6569 49.3939 68.5206 49.7471 68.2532 50.017L66.8958 51.3743C66.8605 51.4096 66.8227 51.4424 66.7848 51.4727L67.6098 52.2976C67.8798 52.5675 68.0135 52.9207 68.0135 53.2739C68.0135 53.6095 67.8924 53.945 67.6502 54.2074C67.6376 54.2225 67.625 54.2376 67.6098 54.2528L66.2525 55.61C65.9825 55.88 65.6268 56.0137 65.2735 56.0137C64.9178 56.0137 64.5646 55.8774 64.2946 55.61L52.3836 43.7075C52.1136 43.4376 51.9774 43.0819 51.9774 42.7287C51.9774 42.3931 52.0985 42.0576 52.3407 41.7952C52.3533 41.7801 52.3659 41.765 52.3811 41.7498L53.7384 40.3926C54.0084 40.1226 54.3616 39.9889 54.7148 39.9889C55.0706 39.9889 55.4238 40.1252 55.6937 40.3926L56.6676 41.3664C56.6979 41.3285 56.7307 41.2907 56.7685 41.2554L58.1259 39.8981C58.3959 39.6282 58.7516 39.4919 59.1048 39.4919C59.4606 39.4919 59.8138 39.6282 60.0837 39.8981L61.0576 40.8719C61.0955 40.8341 61.1283 40.7962 61.1636 40.7609ZM59.0039 40.7735L57.6465 42.1308C57.6188 42.1585 57.6036 42.1964 57.6036 42.2367C57.6036 42.2746 57.6163 42.3124 57.644 42.3402L57.6465 42.3427L65.8109 50.5064C65.8387 50.5342 65.8765 50.5493 65.9169 50.5493C65.9573 50.5493 65.9951 50.5367 66.0229 50.509L67.3802 49.1517C67.408 49.1239 67.4231 49.0861 67.4231 49.0457C67.4231 49.0079 67.408 48.9675 67.3802 48.9398L65.2836 46.8433L59.2158 40.7735C59.1881 40.7458 59.1477 40.7306 59.1099 40.7306C59.0695 40.7306 59.0317 40.7432 59.0039 40.7735ZM42.2159 57.7721L50.3803 65.9358L52.1742 67.7295C52.2019 67.7572 52.2423 67.7699 52.2801 67.7699C52.3129 67.7699 52.3457 67.7598 52.3735 67.7396L52.3861 67.727L53.7435 66.3697C53.7712 66.342 53.7864 66.3041 53.7864 66.2638C53.7864 66.2259 53.7712 66.1855 53.7435 66.1578L41.8349 54.2553C41.8072 54.2275 41.7693 54.2124 41.729 54.2124C41.6911 54.2124 41.6508 54.2275 41.623 54.2553L40.2656 55.6125C40.2379 55.6403 40.2253 55.6807 40.2253 55.7185C40.2253 55.7563 40.2404 55.7967 40.2682 55.8245L42.2159 57.7721ZM49.52 66.8238L49.5074 66.8112L41.3404 58.6449L41.3253 58.6298C41.2976 58.6096 41.2673 58.5995 41.2345 58.5995C41.1966 58.5995 41.1588 58.6147 41.1285 58.6449L39.7711 60.0022C39.7434 60.0299 39.7308 60.0703 39.7308 60.1082C39.7308 60.1409 39.7409 60.1737 39.761 60.2015L39.7737 60.2141L41.7214 62.1617L45.8389 66.2789L47.9381 68.3778C47.9683 68.4081 48.0062 68.4207 48.044 68.4207C48.0768 68.4207 48.1096 68.4106 48.1374 68.3905L48.15 68.3778L49.5074 67.0206C49.5351 66.9928 49.5477 66.9525 49.5477 66.9146C49.5477 66.8818 49.5376 66.849 49.52 66.8238ZM40.6365 63.0346L39.2792 64.3918C39.2514 64.4196 39.2363 64.4574 39.2363 64.4978C39.2363 64.5382 39.2514 64.576 39.2792 64.6038L43.3967 68.7209C43.4244 68.7487 43.4623 68.7638 43.5026 68.7638C43.5405 68.7638 43.5809 68.7487 43.6086 68.7209L44.966 67.3637C44.9937 67.3359 45.0089 67.2981 45.0089 67.2577C45.0089 67.2174 44.9937 67.1795 44.966 67.1518L40.8459 63.0346L40.8434 63.0321C40.8157 63.0043 40.7778 62.9917 40.74 62.9917C40.7021 62.9917 40.6643 63.0068 40.6365 63.0346Z" fill="white"/>
</g>
<path d="M106.92 49V46.72L112.392 40.888C113.128 40.088 113.656 39.384 113.976 38.776C114.296 38.152 114.456 37.52 114.456 36.88C114.456 35.248 113.472 34.432 111.504 34.432C109.968 34.432 108.552 35.008 107.256 36.16L106.224 33.856C106.896 33.248 107.736 32.76 108.744 32.392C109.752 32.024 110.8 31.84 111.888 31.84C113.696 31.84 115.08 32.248 116.04 33.064C117.016 33.88 117.504 35.048 117.504 36.568C117.504 37.592 117.256 38.576 116.76 39.52C116.28 40.464 115.52 41.48 114.48 42.568L110.76 46.456H118.152V49H106.92ZM127.071 49.24C125.071 49.24 123.543 48.488 122.487 46.984C121.431 45.464 120.903 43.304 120.903 40.504C120.903 37.672 121.431 35.52 122.487 34.048C123.543 32.576 125.071 31.84 127.071 31.84C129.087 31.84 130.615 32.576 131.655 34.048C132.711 35.52 133.239 37.664 133.239 40.48C133.239 43.296 132.711 45.464 131.655 46.984C130.599 48.488 129.071 49.24 127.071 49.24ZM127.071 46.72C128.159 46.72 128.959 46.224 129.471 45.232C129.999 44.224 130.263 42.64 130.263 40.48C130.263 38.336 129.999 36.784 129.471 35.824C128.959 34.848 128.159 34.36 127.071 34.36C125.999 34.36 125.199 34.848 124.671 35.824C124.143 36.784 123.879 38.336 123.879 40.48C123.879 42.64 124.143 44.224 124.671 45.232C125.199 46.224 125.999 46.72 127.071 46.72ZM142.133 49.672L140.165 48.52L150.053 31.408L151.997 32.56L142.133 49.672ZM140.069 42.184C138.725 42.184 137.677 41.72 136.925 40.792C136.173 39.864 135.797 38.6 135.797 37C135.797 35.4 136.173 34.144 136.925 33.232C137.677 32.304 138.725 31.84 140.069 31.84C141.413 31.84 142.461 32.304 143.213 33.232C143.965 34.144 144.341 35.4 144.341 37C144.341 38.6 143.965 39.864 143.213 40.792C142.461 41.72 141.413 42.184 140.069 42.184ZM140.069 40.168C140.645 40.168 141.093 39.912 141.413 39.4C141.733 38.872 141.893 38.072 141.893 37C141.893 35.928 141.733 35.136 141.413 34.624C141.093 34.112 140.645 33.856 140.069 33.856C139.493 33.856 139.045 34.112 138.725 34.624C138.405 35.12 138.245 35.912 138.245 37C138.245 38.088 138.405 38.888 138.725 39.4C139.045 39.912 139.493 40.168 140.069 40.168ZM152.117 49.24C150.773 49.24 149.725 48.776 148.973 47.848C148.221 46.92 147.845 45.656 147.845 44.056C147.845 42.456 148.221 41.2 148.973 40.288C149.725 39.36 150.773 38.896 152.117 38.896C153.461 38.896 154.509 39.36 155.261 40.288C156.013 41.2 156.389 42.456 156.389 44.056C156.389 45.656 156.013 46.92 155.261 47.848C154.509 48.776 153.461 49.24 152.117 49.24ZM152.117 47.224C152.693 47.224 153.141 46.968 153.461 46.456C153.781 45.928 153.941 45.128 153.941 44.056C153.941 42.984 153.781 42.192 153.461 41.68C153.141 41.168 152.693 40.912 152.117 40.912C151.541 40.912 151.093 41.168 150.773 41.68C150.453 42.176 150.293 42.968 150.293 44.056C150.293 45.144 150.453 45.944 150.773 46.456C151.093 46.968 151.541 47.224 152.117 47.224ZM166.705 49V32.08H172.993C175.825 32.08 178.009 32.808 179.545 34.264C181.097 35.72 181.873 37.808 181.873 40.528C181.873 43.232 181.097 45.32 179.545 46.792C178.009 48.264 175.825 49 172.993 49H166.705ZM169.777 46.456H172.801C176.705 46.456 178.657 44.48 178.657 40.528C178.657 36.592 176.705 34.624 172.801 34.624H169.777V46.456ZM184.987 34.744V31.816H188.347V34.744H184.987ZM185.179 49V37.264H188.179V49H185.179ZM196.072 49.24C195.08 49.24 194.152 49.12 193.288 48.88C192.424 48.64 191.704 48.296 191.128 47.848L191.896 45.88C192.488 46.28 193.152 46.592 193.888 46.816C194.624 47.024 195.36 47.128 196.096 47.128C196.864 47.128 197.432 47 197.8 46.744C198.184 46.472 198.376 46.12 198.376 45.688C198.376 45.016 197.88 44.584 196.888 44.392L194.488 43.936C192.456 43.552 191.44 42.496 191.44 40.768C191.44 40 191.648 39.336 192.064 38.776C192.496 38.216 193.088 37.784 193.84 37.48C194.592 37.176 195.456 37.024 196.432 37.024C197.264 37.024 198.064 37.144 198.832 37.384C199.6 37.608 200.256 37.952 200.8 38.416L199.984 40.384C199.52 40 198.96 39.696 198.304 39.472C197.664 39.248 197.048 39.136 196.456 39.136C195.672 39.136 195.088 39.272 194.704 39.544C194.336 39.816 194.152 40.176 194.152 40.624C194.152 41.328 194.608 41.76 195.52 41.92L197.92 42.376C198.96 42.568 199.744 42.92 200.272 43.432C200.816 43.944 201.088 44.632 201.088 45.496C201.088 46.664 200.632 47.584 199.72 48.256C198.808 48.912 197.592 49.24 196.072 49.24ZM209.399 49.24C208.167 49.24 207.095 48.992 206.183 48.496C205.271 47.984 204.567 47.264 204.071 46.336C203.575 45.408 203.327 44.32 203.327 43.072C203.327 41.824 203.575 40.752 204.071 39.856C204.567 38.944 205.271 38.248 206.183 37.768C207.095 37.272 208.167 37.024 209.399 37.024C210.151 37.024 210.895 37.144 211.631 37.384C212.367 37.624 212.975 37.96 213.455 38.392L212.567 40.48C212.151 40.112 211.679 39.832 211.151 39.64C210.639 39.448 210.143 39.352 209.663 39.352C208.623 39.352 207.815 39.68 207.239 40.336C206.679 40.976 206.399 41.896 206.399 43.096C206.399 44.28 206.679 45.216 207.239 45.904C207.815 46.576 208.623 46.912 209.663 46.912C210.127 46.912 210.623 46.816 211.151 46.624C211.679 46.432 212.151 46.144 212.567 45.76L213.455 47.872C212.975 48.288 212.359 48.624 211.607 48.88C210.871 49.12 210.135 49.24 209.399 49.24ZM220.893 49.24C219.677 49.24 218.621 48.992 217.725 48.496C216.829 48 216.133 47.296 215.637 46.384C215.141 45.456 214.893 44.368 214.893 43.12C214.893 41.872 215.141 40.792 215.637 39.88C216.133 38.968 216.829 38.264 217.725 37.768C218.621 37.272 219.677 37.024 220.893 37.024C222.109 37.024 223.165 37.272 224.061 37.768C224.957 38.264 225.653 38.968 226.149 39.88C226.645 40.792 226.893 41.872 226.893 43.12C226.893 44.368 226.645 45.456 226.149 46.384C225.653 47.296 224.957 48 224.061 48.496C223.165 48.992 222.109 49.24 220.893 49.24ZM220.893 46.96C221.789 46.96 222.509 46.64 223.053 46C223.597 45.344 223.869 44.384 223.869 43.12C223.869 41.84 223.597 40.888 223.053 40.264C222.509 39.624 221.789 39.304 220.893 39.304C219.997 39.304 219.277 39.624 218.733 40.264C218.189 40.888 217.917 41.84 217.917 43.12C217.917 44.384 218.189 45.344 218.733 46C219.277 46.64 219.997 46.96 220.893 46.96ZM234.097 49.24C231.217 49.24 229.777 47.624 229.777 44.392V37.264H232.777V44.44C232.777 45.272 232.945 45.888 233.281 46.288C233.617 46.688 234.153 46.888 234.889 46.888C235.689 46.888 236.345 46.616 236.857 46.072C237.369 45.512 237.625 44.776 237.625 43.864V37.264H240.625V49H237.697V47.248C236.913 48.576 235.713 49.24 234.097 49.24ZM244.227 49V37.264H247.155V39.088C247.555 38.416 248.091 37.904 248.763 37.552C249.451 37.2 250.219 37.024 251.067 37.024C253.835 37.024 255.219 38.632 255.219 41.848V49H252.219V41.992C252.219 41.08 252.043 40.416 251.691 40C251.355 39.584 250.827 39.376 250.107 39.376C249.227 39.376 248.523 39.656 247.995 40.216C247.483 40.76 247.227 41.488 247.227 42.4V49H244.227ZM264.122 49.24C261.018 49.24 259.466 47.704 259.466 44.632V39.52H257.21V37.264H259.466V33.76H262.466V37.264H266.018V39.52H262.466V44.464C262.466 45.232 262.634 45.808 262.97 46.192C263.306 46.576 263.85 46.768 264.602 46.768C264.826 46.768 265.058 46.744 265.298 46.696C265.538 46.632 265.786 46.568 266.042 46.504L266.498 48.712C266.21 48.872 265.842 49 265.394 49.096C264.962 49.192 264.538 49.24 264.122 49.24Z" fill="#595959"/>
<path d="M113.24 79.18C111.707 79.18 110.413 78.8933 109.36 78.32C108.307 77.7333 107.507 76.9 106.96 75.82C106.427 74.74 106.16 73.4533 106.16 71.96C106.16 70.48 106.433 69.2 106.98 68.12C107.527 67.0267 108.32 66.1867 109.36 65.6C110.4 65.0133 111.647 64.72 113.1 64.72C114.1 64.72 115.027 64.8667 115.88 65.16C116.733 65.4533 117.447 65.8733 118.02 66.42L117.28 68.04C116.64 67.5067 115.987 67.1267 115.32 66.9C114.653 66.66 113.913 66.54 113.1 66.54C111.54 66.54 110.353 67.0133 109.54 67.96C108.727 68.8933 108.32 70.2267 108.32 71.96C108.32 73.7333 108.733 75.08 109.56 76C110.4 76.92 111.653 77.38 113.32 77.38C114.333 77.38 115.34 77.2133 116.34 76.88V73.1H112.9V71.54H118.08V78.18C117.48 78.4733 116.733 78.7133 115.84 78.9C114.96 79.0867 114.093 79.18 113.24 79.18ZM122.449 82.6L124.189 78.74L120.109 69.24H122.269L125.269 76.66L128.309 69.24H130.389L124.569 82.6H122.449ZM132.28 79V69.24H134.24V70.82C134.533 70.26 134.94 69.8267 135.46 69.52C135.98 69.2133 136.586 69.06 137.28 69.06C138.773 69.06 139.74 69.7133 140.18 71.02C140.486 70.4067 140.926 69.9267 141.5 69.58C142.073 69.2333 142.726 69.06 143.46 69.06C145.646 69.06 146.74 70.3667 146.74 72.98V79H144.72V73.08C144.72 72.2533 144.573 71.6467 144.28 71.26C144 70.8733 143.533 70.68 142.88 70.68C142.146 70.68 141.566 70.94 141.14 71.46C140.713 71.9667 140.5 72.66 140.5 73.54V79H138.48V73.08C138.48 72.2533 138.34 71.6467 138.06 71.26C137.78 70.8733 137.313 70.68 136.66 70.68C135.926 70.68 135.346 70.94 134.92 71.46C134.506 71.9667 134.3 72.66 134.3 73.54V79H132.28ZM150.744 81.46L149.864 80.78C150.17 80.4467 150.397 80.14 150.544 79.86C150.69 79.58 150.784 79.2933 150.824 79H149.724V76.62H152.104V78.24C152.104 78.8533 152.004 79.4133 151.804 79.92C151.604 80.44 151.25 80.9533 150.744 81.46ZM164.184 79.18C163.384 79.18 162.637 79.08 161.944 78.88C161.25 78.6667 160.67 78.3733 160.204 78L160.784 76.64C161.277 76.9867 161.817 77.2533 162.404 77.44C163.004 77.6267 163.604 77.72 164.204 77.72C164.91 77.72 165.444 77.5933 165.804 77.34C166.164 77.0867 166.344 76.7467 166.344 76.32C166.344 75.9733 166.224 75.7067 165.984 75.52C165.744 75.32 165.384 75.1667 164.904 75.06L163.004 74.68C161.324 74.3333 160.484 73.4667 160.484 72.08C160.484 71.16 160.85 70.4267 161.584 69.88C162.317 69.3333 163.277 69.06 164.464 69.06C165.144 69.06 165.79 69.16 166.404 69.36C167.03 69.56 167.55 69.86 167.964 70.26L167.384 71.62C166.984 71.2733 166.524 71.0067 166.004 70.82C165.484 70.6333 164.97 70.54 164.464 70.54C163.77 70.54 163.244 70.6733 162.884 70.94C162.524 71.1933 162.344 71.54 162.344 71.98C162.344 72.6467 162.784 73.0733 163.664 73.26L165.564 73.64C166.43 73.8133 167.084 74.1067 167.524 74.52C167.977 74.9333 168.204 75.4933 168.204 76.2C168.204 77.1333 167.837 77.8667 167.104 78.4C166.37 78.92 165.397 79.18 164.184 79.18ZM170.851 82.6V69.24H172.831V70.9C173.111 70.34 173.538 69.8933 174.111 69.56C174.685 69.2267 175.345 69.06 176.091 69.06C176.958 69.06 177.711 69.2667 178.351 69.68C179.005 70.0933 179.505 70.68 179.851 71.44C180.211 72.1867 180.391 73.08 180.391 74.12C180.391 75.16 180.211 76.06 179.851 76.82C179.505 77.58 179.005 78.1667 178.351 78.58C177.711 78.98 176.958 79.18 176.091 79.18C175.371 79.18 174.725 79.0267 174.151 78.72C173.591 78.4 173.165 77.9667 172.871 77.42V82.6H170.851ZM175.591 77.62C176.431 77.62 177.098 77.32 177.591 76.72C178.098 76.12 178.351 75.2533 178.351 74.12C178.351 72.9867 178.098 72.1267 177.591 71.54C177.098 70.94 176.431 70.64 175.591 70.64C174.751 70.64 174.078 70.94 173.571 71.54C173.078 72.1267 172.831 72.9867 172.831 74.12C172.831 75.2533 173.078 76.12 173.571 76.72C174.078 77.32 174.751 77.62 175.591 77.62ZM186.188 79.18C185.508 79.18 184.901 79.0467 184.368 78.78C183.834 78.5133 183.408 78.1533 183.088 77.7C182.781 77.2467 182.628 76.7333 182.628 76.16C182.628 75.44 182.808 74.8733 183.168 74.46C183.541 74.0467 184.148 73.7467 184.988 73.56C185.841 73.3733 186.988 73.28 188.428 73.28H189.108V72.76C189.108 72 188.948 71.4533 188.628 71.12C188.308 70.7867 187.781 70.62 187.048 70.62C186.488 70.62 185.928 70.7067 185.368 70.88C184.808 71.04 184.234 71.3 183.648 71.66L183.028 70.24C183.534 69.88 184.168 69.5933 184.928 69.38C185.688 69.1667 186.414 69.06 187.108 69.06C188.441 69.06 189.428 69.38 190.068 70.02C190.708 70.6467 191.028 71.6333 191.028 72.98V79H189.128V77.38C188.888 77.94 188.514 78.38 188.008 78.7C187.501 79.02 186.894 79.18 186.188 79.18ZM186.588 77.74C187.308 77.74 187.908 77.4867 188.388 76.98C188.868 76.4733 189.108 75.8333 189.108 75.06V74.52H188.448C187.474 74.52 186.708 74.5667 186.148 74.66C185.601 74.7533 185.208 74.9133 184.968 75.14C184.741 75.3533 184.628 75.6533 184.628 76.04C184.628 76.5467 184.801 76.96 185.148 77.28C185.494 77.5867 185.974 77.74 186.588 77.74ZM202.984 79.18C202.304 79.18 201.697 79.0467 201.164 78.78C200.63 78.5133 200.204 78.1533 199.884 77.7C199.577 77.2467 199.424 76.7333 199.424 76.16C199.424 75.44 199.604 74.8733 199.964 74.46C200.337 74.0467 200.944 73.7467 201.784 73.56C202.637 73.3733 203.784 73.28 205.224 73.28H205.904V72.76C205.904 72 205.744 71.4533 205.424 71.12C205.104 70.7867 204.577 70.62 203.844 70.62C203.284 70.62 202.724 70.7067 202.164 70.88C201.604 71.04 201.03 71.3 200.444 71.66L199.824 70.24C200.33 69.88 200.964 69.5933 201.724 69.38C202.484 69.1667 203.21 69.06 203.904 69.06C205.237 69.06 206.224 69.38 206.864 70.02C207.504 70.6467 207.824 71.6333 207.824 72.98V79H205.924V77.38C205.684 77.94 205.31 78.38 204.804 78.7C204.297 79.02 203.69 79.18 202.984 79.18ZM203.384 77.74C204.104 77.74 204.704 77.4867 205.184 76.98C205.664 76.4733 205.904 75.8333 205.904 75.06V74.52H205.244C204.27 74.52 203.504 74.5667 202.944 74.66C202.397 74.7533 202.004 74.9133 201.764 75.14C201.537 75.3533 201.424 75.6533 201.424 76.04C201.424 76.5467 201.597 76.96 201.944 77.28C202.29 77.5867 202.77 77.74 203.384 77.74ZM211.006 79V69.24H212.966V70.86C213.299 70.2733 213.753 69.8267 214.326 69.52C214.913 69.2133 215.566 69.06 216.286 69.06C218.593 69.06 219.746 70.3667 219.746 72.98V79H217.726V73.1C217.726 72.26 217.559 71.6467 217.226 71.26C216.906 70.8733 216.399 70.68 215.706 70.68C214.893 70.68 214.239 70.94 213.746 71.46C213.266 71.9667 213.026 72.64 213.026 73.48V79H211.006ZM226.649 79.18C225.796 79.18 225.043 78.98 224.389 78.58C223.749 78.1667 223.249 77.58 222.889 76.82C222.529 76.06 222.349 75.16 222.349 74.12C222.349 73.08 222.529 72.1867 222.889 71.44C223.249 70.68 223.749 70.0933 224.389 69.68C225.029 69.2667 225.783 69.06 226.649 69.06C227.383 69.06 228.036 69.22 228.609 69.54C229.183 69.86 229.609 70.2933 229.889 70.84V64.9H231.909V79H229.929V77.3C229.649 77.8867 229.216 78.3467 228.629 78.68C228.056 79.0133 227.396 79.18 226.649 79.18ZM227.169 77.62C227.996 77.62 228.663 77.32 229.169 76.72C229.676 76.12 229.929 75.2533 229.929 74.12C229.929 72.9867 229.676 72.1267 229.169 71.54C228.663 70.94 227.996 70.64 227.169 70.64C226.329 70.64 225.656 70.94 225.149 71.54C224.643 72.1267 224.389 72.9867 224.389 74.12C224.389 75.2533 224.643 76.12 225.149 76.72C225.656 77.32 226.329 77.62 227.169 77.62ZM243.44 79L239.72 69.24H241.8L244.42 76.64L247.12 69.24H248.68L251.34 76.68L254 69.24H255.98L252.26 79H250.42L247.84 72.02L245.28 79H243.44ZM262.518 79.18C260.918 79.18 259.658 78.7333 258.738 77.84C257.818 76.9333 257.358 75.7 257.358 74.14C257.358 73.14 257.558 72.26 257.958 71.5C258.371 70.7267 258.938 70.1267 259.658 69.7C260.378 69.2733 261.205 69.06 262.138 69.06C263.485 69.06 264.545 69.4933 265.318 70.36C266.091 71.2133 266.478 72.3933 266.478 73.9V74.58H259.318C259.465 76.6067 260.538 77.62 262.538 77.62C263.098 77.62 263.645 77.5333 264.178 77.36C264.725 77.1867 265.238 76.9 265.718 76.5L266.318 77.9C265.878 78.3 265.311 78.6133 264.618 78.84C263.925 79.0667 263.225 79.18 262.518 79.18ZM262.218 70.48C261.378 70.48 260.711 70.74 260.218 71.26C259.725 71.78 259.425 72.4733 259.318 73.34H264.778C264.738 72.4333 264.498 71.7333 264.058 71.24C263.618 70.7333 263.005 70.48 262.218 70.48ZM272.26 79.18C271.193 79.18 270.393 78.88 269.86 78.28C269.34 77.68 269.08 76.8 269.08 75.64V64.9H271.1V75.52C271.1 76.84 271.64 77.5 272.72 77.5C272.88 77.5 273.027 77.4933 273.16 77.48C273.307 77.4667 273.453 77.44 273.6 77.4L273.56 79.02C273.107 79.1267 272.673 79.18 272.26 79.18ZM278.773 79.18C277.707 79.18 276.907 78.88 276.373 78.28C275.853 77.68 275.593 76.8 275.593 75.64V64.9H277.613V75.52C277.613 76.84 278.153 77.5 279.233 77.5C279.393 77.5 279.54 77.4933 279.673 77.48C279.82 77.4667 279.967 77.44 280.113 77.4L280.073 79.02C279.62 79.1267 279.187 79.18 278.773 79.18ZM282.107 79V69.24H284.067V70.86C284.4 70.2733 284.853 69.8267 285.427 69.52C286.013 69.2133 286.667 69.06 287.387 69.06C289.693 69.06 290.847 70.3667 290.847 72.98V79H288.827V73.1C288.827 72.26 288.66 71.6467 288.327 71.26C288.007 70.8733 287.5 70.68 286.807 70.68C285.993 70.68 285.34 70.94 284.847 71.46C284.367 71.9667 284.127 72.64 284.127 73.48V79H282.107ZM298.61 79.18C297.01 79.18 295.75 78.7333 294.83 77.84C293.91 76.9333 293.45 75.7 293.45 74.14C293.45 73.14 293.65 72.26 294.05 71.5C294.463 70.7267 295.03 70.1267 295.75 69.7C296.47 69.2733 297.297 69.06 298.23 69.06C299.577 69.06 300.637 69.4933 301.41 70.36C302.183 71.2133 302.57 72.3933 302.57 73.9V74.58H295.41C295.557 76.6067 296.63 77.62 298.63 77.62C299.19 77.62 299.737 77.5333 300.27 77.36C300.817 77.1867 301.33 76.9 301.81 76.5L302.41 77.9C301.97 78.3 301.403 78.6133 300.71 78.84C300.017 79.0667 299.317 79.18 298.61 79.18ZM298.31 70.48C297.47 70.48 296.803 70.74 296.31 71.26C295.817 71.78 295.517 72.4733 295.41 73.34H300.87C300.83 72.4333 300.59 71.7333 300.15 71.24C299.71 70.7333 299.097 70.48 298.31 70.48ZM308.592 79.18C307.792 79.18 307.046 79.08 306.352 78.88C305.659 78.6667 305.079 78.3733 304.612 78L305.192 76.64C305.686 76.9867 306.226 77.2533 306.812 77.44C307.412 77.6267 308.012 77.72 308.612 77.72C309.319 77.72 309.852 77.5933 310.212 77.34C310.572 77.0867 310.752 76.7467 310.752 76.32C310.752 75.9733 310.632 75.7067 310.392 75.52C310.152 75.32 309.792 75.1667 309.312 75.06L307.412 74.68C305.732 74.3333 304.892 73.4667 304.892 72.08C304.892 71.16 305.259 70.4267 305.992 69.88C306.726 69.3333 307.686 69.06 308.872 69.06C309.552 69.06 310.199 69.16 310.812 69.36C311.439 69.56 311.959 69.86 312.372 70.26L311.792 71.62C311.392 71.2733 310.932 71.0067 310.412 70.82C309.892 70.6333 309.379 70.54 308.872 70.54C308.179 70.54 307.652 70.6733 307.292 70.94C306.932 71.1933 306.752 71.54 306.752 71.98C306.752 72.6467 307.192 73.0733 308.072 73.26L309.972 73.64C310.839 73.8133 311.492 74.1067 311.932 74.52C312.386 74.9333 312.612 75.4933 312.612 76.2C312.612 77.1333 312.246 77.8667 311.512 78.4C310.779 78.92 309.806 79.18 308.592 79.18ZM318.68 79.18C317.88 79.18 317.133 79.08 316.44 78.88C315.747 78.6667 315.167 78.3733 314.7 78L315.28 76.64C315.773 76.9867 316.313 77.2533 316.9 77.44C317.5 77.6267 318.1 77.72 318.7 77.72C319.407 77.72 319.94 77.5933 320.3 77.34C320.66 77.0867 320.84 76.7467 320.84 76.32C320.84 75.9733 320.72 75.7067 320.48 75.52C320.24 75.32 319.88 75.1667 319.4 75.06L317.5 74.68C315.82 74.3333 314.98 73.4667 314.98 72.08C314.98 71.16 315.347 70.4267 316.08 69.88C316.813 69.3333 317.773 69.06 318.96 69.06C319.64 69.06 320.287 69.16 320.9 69.36C321.527 69.56 322.047 69.86 322.46 70.26L321.88 71.62C321.48 71.2733 321.02 71.0067 320.5 70.82C319.98 70.6333 319.467 70.54 318.96 70.54C318.267 70.54 317.74 70.6733 317.38 70.94C317.02 71.1933 316.84 71.54 316.84 71.98C316.84 72.6467 317.28 73.0733 318.16 73.26L320.06 73.64C320.927 73.8133 321.58 74.1067 322.02 74.52C322.473 74.9333 322.7 75.4933 322.7 76.2C322.7 77.1333 322.333 77.8667 321.6 78.4C320.867 78.92 319.893 79.18 318.68 79.18Z" fill="#545567"/>
<defs>
<filter id="filter0_b_2110_1584" x="-20" y="-20" width="430" height="153" filterUnits="userSpaceOnUse" color-interpolation-filters="sRGB">
<feFlood flood-opacity="0" result="BackgroundImageFix"/>
<feGaussianBlur in="BackgroundImageFix" stdDeviation="10"/>
<feComposite in2="SourceAlpha" operator="in" result="effect1_backgroundBlur_2110_1584"/>
<feBlend mode="normal" in="SourceGraphic" in2="effect1_backgroundBlur_2110_1584" result="shape"/>
</filter>
<filter id="filter1_d_2110_1584" x="1" y="16" width="106" height="106" filterUnits="userSpaceOnUse" color-interpolation-filters="sRGB">
<feFlood flood-opacity="0" result="BackgroundImageFix"/>
<feColorMatrix in="SourceAlpha" type="matrix" values="0 0 0 0 0 0 0 0 0 0 0 0 0 0 0 0 0 0 127 0" result="hardAlpha"/>
<feOffset dy="15"/>
<feGaussianBlur stdDeviation="12.5"/>
<feColorMatrix type="matrix" values="0 0 0 0 0 0 0 0 0 0 0 0 0 0 0 0 0 0 0.06 0"/>
<feBlend mode="normal" in2="BackgroundImageFix" result="effect1_dropShadow_2110_1584"/>
<feBlend mode="normal" in="SourceGraphic" in2="effect1_dropShadow_2110_1584" result="shape"/>
</filter>
<clipPath id="clip0_2110_1584">
<rect width="31" height="31" fill="white" transform="translate(38 39)"/>
</clipPath>
</defs>
</svg>
