<svg width="490" height="213" viewBox="0 0 490 213" fill="none" xmlns="http://www.w3.org/2000/svg">
<g filter="url(#filter0_d_2110_1584)">
<g filter="url(#filter1_b_2110_1584)">
<rect x="45" y="35" width="390" height="113" rx="20" fill="white"/>
</g>
<g filter="url(#filter2_d_2110_1584)">
<rect x="71" y="61" width="56" height="56" rx="28" fill="#77BD74"/>
</g>
<g clip-path="url(#clip0_2110_1584)">
<path d="M83.4062 98.5164L84.7636 97.1592C84.7989 97.1239 84.8367 97.0911 84.8746 97.0583L83.9007 96.0845C83.8856 96.0693 83.873 96.0542 83.8603 96.0391C83.6181 95.7742 83.497 95.4386 83.497 95.1056C83.497 94.7524 83.6333 94.3993 83.9032 94.1293L85.2606 92.7721C85.2959 92.7367 85.3338 92.7039 85.3716 92.6711L84.3977 91.6973C84.1278 91.4274 83.9941 91.0717 83.9941 90.7185C83.9941 90.3653 84.1303 90.0121 84.3977 89.7422L85.7551 88.3849C86.0251 88.115 86.3808 87.9813 86.734 87.9813C87.0898 87.9813 87.443 88.115 87.7129 88.3849L99.624 100.295C99.894 100.565 100.028 100.921 100.028 101.274C100.028 101.63 99.894 101.983 99.624 102.253L98.2666 103.61C98.2515 103.625 98.2363 103.638 98.2212 103.65C97.9563 103.892 97.6207 104.014 97.2877 104.014C96.9345 104.014 96.5813 103.877 96.3113 103.61L95.4863 102.785C95.456 102.823 95.4232 102.861 95.3879 102.896L94.0305 104.253C94.0154 104.268 94.0002 104.281 93.9851 104.294C93.7227 104.533 93.3872 104.654 93.0516 104.654C92.6959 104.654 92.3426 104.521 92.0752 104.251L90.9499 103.126C90.9197 103.163 90.8869 103.201 90.849 103.237L89.4917 104.594C89.2217 104.864 88.866 104.997 88.5127 104.997C88.1595 104.997 87.8038 104.864 87.5338 104.594L83.4062 100.477C83.1362 100.207 83 99.851 83 99.4978C83 99.1421 83.1362 98.7889 83.4062 98.5164ZM99.6139 76.2655L98.2565 77.6227L98.2439 77.6353C98.2237 77.6631 98.2136 77.6959 98.2136 77.7287C98.2136 77.7665 98.2288 77.8069 98.2565 77.8346L110.168 89.7447C110.195 89.7725 110.233 89.7876 110.274 89.7876C110.311 89.7876 110.352 89.7725 110.38 89.7447L111.737 88.3874L111.749 88.3748C111.77 88.3496 111.78 88.3143 111.78 88.2815C111.78 88.2411 111.767 88.2033 111.739 88.1755L109.941 86.3768L101.774 78.2156L99.8258 76.268C99.7981 76.2402 99.7602 76.2251 99.7199 76.2251C99.6795 76.2226 99.6417 76.2377 99.6139 76.2655ZM101.032 85.9353C101.37 85.5972 101.92 85.5972 102.261 85.9353C102.599 86.2734 102.599 86.8233 102.261 87.1639L96.3063 93.1126C95.9682 93.4507 95.4182 93.4507 95.0776 93.1126C94.7395 92.7746 94.7395 92.2246 95.0776 91.884L101.032 85.9353ZM108.394 75.2791L107.037 76.6363C107.006 76.6666 106.991 76.7044 106.991 76.7423C106.991 76.7751 107.001 76.8053 107.021 76.8331L107.037 76.8482L111.154 80.9654L111.167 80.978C111.192 80.9982 111.225 81.0058 111.258 81.0058C111.295 81.0058 111.336 80.9906 111.363 80.9629L112.721 79.6056C112.751 79.5754 112.766 79.5375 112.766 79.4997C112.766 79.4618 112.751 79.4215 112.723 79.3937L108.606 75.2791C108.578 75.2513 108.54 75.2362 108.5 75.2362C108.46 75.2362 108.422 75.2513 108.394 75.2791ZM106.164 75.7609L107.521 74.4036C107.791 74.1337 108.147 74 108.5 74C108.853 74 109.209 74.1337 109.479 74.4036L113.596 78.5208C113.864 78.7882 114 79.144 113.997 79.4972C113.997 79.8529 113.864 80.2086 113.596 80.476L112.239 81.8333C112.204 81.8686 112.166 81.9014 112.128 81.9342L113.253 83.0593C113.523 83.3293 113.657 83.685 113.657 84.0382C113.657 84.3939 113.521 84.7471 113.253 85.017L111.896 86.3743C111.861 86.4096 111.823 86.4424 111.785 86.4727L112.61 87.2976C112.88 87.5675 113.014 87.9207 113.014 88.2739C113.014 88.6095 112.892 88.945 112.65 89.2074C112.638 89.2225 112.625 89.2376 112.61 89.2528L111.252 90.61C110.983 90.88 110.627 91.0137 110.274 91.0137C109.918 91.0137 109.565 90.8774 109.295 90.61L97.3836 78.7075C97.1136 78.4376 96.9774 78.0819 96.9774 77.7287C96.9774 77.3931 97.0985 77.0576 97.3407 76.7952C97.3533 76.7801 97.3659 76.765 97.3811 76.7498L98.7384 75.3926C99.0084 75.1226 99.3616 74.9889 99.7148 74.9889C100.071 74.9889 100.424 75.1252 100.694 75.3926L101.668 76.3664C101.698 76.3285 101.731 76.2907 101.769 76.2554L103.126 74.8981C103.396 74.6282 103.752 74.4919 104.105 74.4919C104.461 74.4919 104.814 74.6282 105.084 74.8981L106.058 75.8719C106.095 75.8341 106.128 75.7962 106.164 75.7609ZM104.004 75.7735L102.647 77.1308C102.619 77.1585 102.604 77.1964 102.604 77.2367C102.604 77.2746 102.616 77.3124 102.644 77.3402L102.647 77.3427L110.811 85.5064C110.839 85.5342 110.877 85.5493 110.917 85.5493C110.957 85.5493 110.995 85.5367 111.023 85.509L112.38 84.1517C112.408 84.1239 112.423 84.0861 112.423 84.0457C112.423 84.0079 112.408 83.9675 112.38 83.9398L110.284 81.8433L104.216 75.7735C104.188 75.7458 104.148 75.7306 104.11 75.7306C104.07 75.7306 104.032 75.7432 104.004 75.7735ZM87.2159 92.7721L95.3803 100.936L97.1742 102.729C97.2019 102.757 97.2423 102.77 97.2801 102.77C97.3129 102.77 97.3457 102.76 97.3735 102.74L97.3861 102.727L98.7435 101.37C98.7712 101.342 98.7864 101.304 98.7864 101.264C98.7864 101.226 98.7712 101.186 98.7435 101.158L86.8349 89.2553C86.8072 89.2275 86.7693 89.2124 86.729 89.2124C86.6911 89.2124 86.6508 89.2275 86.623 89.2553L85.2656 90.6125C85.2379 90.6403 85.2253 90.6807 85.2253 90.7185C85.2253 90.7563 85.2404 90.7967 85.2682 90.8245L87.2159 92.7721ZM94.52 101.824L94.5074 101.811L86.3404 93.6449L86.3253 93.6298C86.2976 93.6096 86.2673 93.5995 86.2345 93.5995C86.1966 93.5995 86.1588 93.6147 86.1285 93.6449L84.7711 95.0022C84.7434 95.0299 84.7308 95.0703 84.7308 95.1082C84.7308 95.1409 84.7409 95.1737 84.761 95.2015L84.7737 95.2141L86.7214 97.1617L90.8389 101.279L92.9381 103.378C92.9683 103.408 93.0062 103.421 93.044 103.421C93.0768 103.421 93.1096 103.411 93.1374 103.39L93.15 103.378L94.5074 102.021C94.5351 101.993 94.5477 101.952 94.5477 101.915C94.5477 101.882 94.5376 101.849 94.52 101.824ZM85.6365 98.0346L84.2792 99.3918C84.2514 99.4196 84.2363 99.4574 84.2363 99.4978C84.2363 99.5382 84.2514 99.576 84.2792 99.6038L88.3967 103.721C88.4244 103.749 88.4623 103.764 88.5026 103.764C88.5405 103.764 88.5809 103.749 88.6086 103.721L89.966 102.364C89.9937 102.336 90.0089 102.298 90.0089 102.258C90.0089 102.217 89.9937 102.18 89.966 102.152L85.8459 98.0346L85.8434 98.0321C85.8157 98.0043 85.7778 97.9917 85.74 97.9917C85.7021 97.9917 85.6643 98.0068 85.6365 98.0346Z" fill="white"/>
</g>
<path d="M151.92 84V81.72L157.392 75.888C158.128 75.088 158.656 74.384 158.976 73.776C159.296 73.152 159.456 72.52 159.456 71.88C159.456 70.248 158.472 69.432 156.504 69.432C154.968 69.432 153.552 70.008 152.256 71.16L151.224 68.856C151.896 68.248 152.736 67.76 153.744 67.392C154.752 67.024 155.8 66.84 156.888 66.84C158.696 66.84 160.08 67.248 161.04 68.064C162.016 68.88 162.504 70.048 162.504 71.568C162.504 72.592 162.256 73.576 161.76 74.52C161.28 75.464 160.52 76.48 159.48 77.568L155.76 81.456H163.152V84H151.92ZM172.071 84.24C170.071 84.24 168.543 83.488 167.487 81.984C166.431 80.464 165.903 78.304 165.903 75.504C165.903 72.672 166.431 70.52 167.487 69.048C168.543 67.576 170.071 66.84 172.071 66.84C174.087 66.84 175.615 67.576 176.655 69.048C177.711 70.52 178.239 72.664 178.239 75.48C178.239 78.296 177.711 80.464 176.655 81.984C175.599 83.488 174.071 84.24 172.071 84.24ZM172.071 81.72C173.159 81.72 173.959 81.224 174.471 80.232C174.999 79.224 175.263 77.64 175.263 75.48C175.263 73.336 174.999 71.784 174.471 70.824C173.959 69.848 173.159 69.36 172.071 69.36C170.999 69.36 170.199 69.848 169.671 70.824C169.143 71.784 168.879 73.336 168.879 75.48C168.879 77.64 169.143 79.224 169.671 80.232C170.199 81.224 170.999 81.72 172.071 81.72ZM187.133 84.672L185.165 83.52L195.053 66.408L196.997 67.56L187.133 84.672ZM185.069 77.184C183.725 77.184 182.677 76.72 181.925 75.792C181.173 74.864 180.797 73.6 180.797 72C180.797 70.4 181.173 69.144 181.925 68.232C182.677 67.304 183.725 66.84 185.069 66.84C186.413 66.84 187.461 67.304 188.213 68.232C188.965 69.144 189.341 70.4 189.341 72C189.341 73.6 188.965 74.864 188.213 75.792C187.461 76.72 186.413 77.184 185.069 77.184ZM185.069 75.168C185.645 75.168 186.093 74.912 186.413 74.4C186.733 73.872 186.893 73.072 186.893 72C186.893 70.928 186.733 70.136 186.413 69.624C186.093 69.112 185.645 68.856 185.069 68.856C184.493 68.856 184.045 69.112 183.725 69.624C183.405 70.12 183.245 70.912 183.245 72C183.245 73.088 183.405 73.888 183.725 74.4C184.045 74.912 184.493 75.168 185.069 75.168ZM197.117 84.24C195.773 84.24 194.725 83.776 193.973 82.848C193.221 81.92 192.845 80.656 192.845 79.056C192.845 77.456 193.221 76.2 193.973 75.288C194.725 74.36 195.773 73.896 197.117 73.896C198.461 73.896 199.509 74.36 200.261 75.288C201.013 76.2 201.389 77.456 201.389 79.056C201.389 80.656 201.013 81.92 200.261 82.848C199.509 83.776 198.461 84.24 197.117 84.24ZM197.117 82.224C197.693 82.224 198.141 81.968 198.461 81.456C198.781 80.928 198.941 80.128 198.941 79.056C198.941 77.984 198.781 77.192 198.461 76.68C198.141 76.168 197.693 75.912 197.117 75.912C196.541 75.912 196.093 76.168 195.773 76.68C195.453 77.176 195.293 77.968 195.293 79.056C195.293 80.144 195.453 80.944 195.773 81.456C196.093 81.968 196.541 82.224 197.117 82.224ZM211.705 84V67.08H217.993C220.825 67.08 223.009 67.808 224.545 69.264C226.097 70.72 226.873 72.808 226.873 75.528C226.873 78.232 226.097 80.32 224.545 81.792C223.009 83.264 220.825 84 217.993 84H211.705ZM214.777 81.456H217.801C221.705 81.456 223.657 79.48 223.657 75.528C223.657 71.592 221.705 69.624 217.801 69.624H214.777V81.456ZM229.987 69.744V66.816H233.347V69.744H229.987ZM230.179 84V72.264H233.179V84H230.179ZM241.072 84.24C240.08 84.24 239.152 84.12 238.288 83.88C237.424 83.64 236.704 83.296 236.128 82.848L236.896 80.88C237.488 81.28 238.152 81.592 238.888 81.816C239.624 82.024 240.36 82.128 241.096 82.128C241.864 82.128 242.432 82 242.8 81.744C243.184 81.472 243.376 81.12 243.376 80.688C243.376 80.016 242.88 79.584 241.888 79.392L239.488 78.936C237.456 78.552 236.44 77.496 236.44 75.768C236.44 75 236.648 74.336 237.064 73.776C237.496 73.216 238.088 72.784 238.84 72.48C239.592 72.176 240.456 72.024 241.432 72.024C242.264 72.024 243.064 72.144 243.832 72.384C244.6 72.608 245.256 72.952 245.8 73.416L244.984 75.384C244.52 75 243.96 74.696 243.304 74.472C242.664 74.248 242.048 74.136 241.456 74.136C240.672 74.136 240.088 74.272 239.704 74.544C239.336 74.816 239.152 75.176 239.152 75.624C239.152 76.328 239.608 76.76 240.52 76.92L242.92 77.376C243.96 77.568 244.744 77.92 245.272 78.432C245.816 78.944 246.088 79.632 246.088 80.496C246.088 81.664 245.632 82.584 244.72 83.256C243.808 83.912 242.592 84.24 241.072 84.24ZM254.399 84.24C253.167 84.24 252.095 83.992 251.183 83.496C250.271 82.984 249.567 82.264 249.071 81.336C248.575 80.408 248.327 79.32 248.327 78.072C248.327 76.824 248.575 75.752 249.071 74.856C249.567 73.944 250.271 73.248 251.183 72.768C252.095 72.272 253.167 72.024 254.399 72.024C255.151 72.024 255.895 72.144 256.631 72.384C257.367 72.624 257.975 72.96 258.455 73.392L257.567 75.48C257.151 75.112 256.679 74.832 256.151 74.64C255.639 74.448 255.143 74.352 254.663 74.352C253.623 74.352 252.815 74.68 252.239 75.336C251.679 75.976 251.399 76.896 251.399 78.096C251.399 79.28 251.679 80.216 252.239 80.904C252.815 81.576 253.623 81.912 254.663 81.912C255.127 81.912 255.623 81.816 256.151 81.624C256.679 81.432 257.151 81.144 257.567 80.76L258.455 82.872C257.975 83.288 257.359 83.624 256.607 83.88C255.871 84.12 255.135 84.24 254.399 84.24ZM265.893 84.24C264.677 84.24 263.621 83.992 262.725 83.496C261.829 83 261.133 82.296 260.637 81.384C260.141 80.456 259.893 79.368 259.893 78.12C259.893 76.872 260.141 75.792 260.637 74.88C261.133 73.968 261.829 73.264 262.725 72.768C263.621 72.272 264.677 72.024 265.893 72.024C267.109 72.024 268.165 72.272 269.061 72.768C269.957 73.264 270.653 73.968 271.149 74.88C271.645 75.792 271.893 76.872 271.893 78.12C271.893 79.368 271.645 80.456 271.149 81.384C270.653 82.296 269.957 83 269.061 83.496C268.165 83.992 267.109 84.24 265.893 84.24ZM265.893 81.96C266.789 81.96 267.509 81.64 268.053 81C268.597 80.344 268.869 79.384 268.869 78.12C268.869 76.84 268.597 75.888 268.053 75.264C267.509 74.624 266.789 74.304 265.893 74.304C264.997 74.304 264.277 74.624 263.733 75.264C263.189 75.888 262.917 76.84 262.917 78.12C262.917 79.384 263.189 80.344 263.733 81C264.277 81.64 264.997 81.96 265.893 81.96ZM279.097 84.24C276.217 84.24 274.777 82.624 274.777 79.392V72.264H277.777V79.44C277.777 80.272 277.945 80.888 278.281 81.288C278.617 81.688 279.153 81.888 279.889 81.888C280.689 81.888 281.345 81.616 281.857 81.072C282.369 80.512 282.625 79.776 282.625 78.864V72.264H285.625V84H282.697V82.248C281.913 83.576 280.713 84.24 279.097 84.24ZM289.227 84V72.264H292.155V74.088C292.555 73.416 293.091 72.904 293.763 72.552C294.451 72.2 295.219 72.024 296.067 72.024C298.835 72.024 300.219 73.632 300.219 76.848V84H297.219V76.992C297.219 76.08 297.043 75.416 296.691 75C296.355 74.584 295.827 74.376 295.107 74.376C294.227 74.376 293.523 74.656 292.995 75.216C292.483 75.76 292.227 76.488 292.227 77.4V84H289.227ZM309.122 84.24C306.018 84.24 304.466 82.704 304.466 79.632V74.52H302.21V72.264H304.466V68.76H307.466V72.264H311.018V74.52H307.466V79.464C307.466 80.232 307.634 80.808 307.97 81.192C308.306 81.576 308.85 81.768 309.602 81.768C309.826 81.768 310.058 81.744 310.298 81.696C310.538 81.632 310.786 81.568 311.042 81.504L311.498 83.712C311.21 83.872 310.842 84 310.394 84.096C309.962 84.192 309.538 84.24 309.122 84.24Z" fill="#595959"/>
<path d="M158.24 114.18C156.707 114.18 155.413 113.893 154.36 113.32C153.307 112.733 152.507 111.9 151.96 110.82C151.427 109.74 151.16 108.453 151.16 106.96C151.16 105.48 151.433 104.2 151.98 103.12C152.527 102.027 153.32 101.187 154.36 100.6C155.4 100.013 156.647 99.72 158.1 99.72C159.1 99.72 160.027 99.8667 160.88 100.16C161.733 100.453 162.447 100.873 163.02 101.42L162.28 103.04C161.64 102.507 160.987 102.127 160.32 101.9C159.653 101.66 158.913 101.54 158.1 101.54C156.54 101.54 155.353 102.013 154.54 102.96C153.727 103.893 153.32 105.227 153.32 106.96C153.32 108.733 153.733 110.08 154.56 111C155.4 111.92 156.653 112.38 158.32 112.38C159.333 112.38 160.34 112.213 161.34 111.88V108.1H157.9V106.54H163.08V113.18C162.48 113.473 161.733 113.713 160.84 113.9C159.96 114.087 159.093 114.18 158.24 114.18ZM167.449 117.6L169.189 113.74L165.109 104.24H167.269L170.269 111.66L173.309 104.24H175.389L169.569 117.6H167.449ZM177.28 114V104.24H179.24V105.82C179.533 105.26 179.94 104.827 180.46 104.52C180.98 104.213 181.586 104.06 182.28 104.06C183.773 104.06 184.74 104.713 185.18 106.02C185.486 105.407 185.926 104.927 186.5 104.58C187.073 104.233 187.726 104.06 188.46 104.06C190.646 104.06 191.74 105.367 191.74 107.98V114H189.72V108.08C189.72 107.253 189.573 106.647 189.28 106.26C189 105.873 188.533 105.68 187.88 105.68C187.146 105.68 186.566 105.94 186.14 106.46C185.713 106.967 185.5 107.66 185.5 108.54V114H183.48V108.08C183.48 107.253 183.34 106.647 183.06 106.26C182.78 105.873 182.313 105.68 181.66 105.68C180.926 105.68 180.346 105.94 179.92 106.46C179.506 106.967 179.3 107.66 179.3 108.54V114H177.28ZM195.744 116.46L194.864 115.78C195.17 115.447 195.397 115.14 195.544 114.86C195.69 114.58 195.784 114.293 195.824 114H194.724V111.62H197.104V113.24C197.104 113.853 197.004 114.413 196.804 114.92C196.604 115.44 196.25 115.953 195.744 116.46ZM209.184 114.18C208.384 114.18 207.637 114.08 206.944 113.88C206.25 113.667 205.67 113.373 205.204 113L205.784 111.64C206.277 111.987 206.817 112.253 207.404 112.44C208.004 112.627 208.604 112.72 209.204 112.72C209.91 112.72 210.444 112.593 210.804 112.34C211.164 112.087 211.344 111.747 211.344 111.32C211.344 110.973 211.224 110.707 210.984 110.52C210.744 110.32 210.384 110.167 209.904 110.06L208.004 109.68C206.324 109.333 205.484 108.467 205.484 107.08C205.484 106.16 205.85 105.427 206.584 104.88C207.317 104.333 208.277 104.06 209.464 104.06C210.144 104.06 210.79 104.16 211.404 104.36C212.03 104.56 212.55 104.86 212.964 105.26L212.384 106.62C211.984 106.273 211.524 106.007 211.004 105.82C210.484 105.633 209.97 105.54 209.464 105.54C208.77 105.54 208.244 105.673 207.884 105.94C207.524 106.193 207.344 106.54 207.344 106.98C207.344 107.647 207.784 108.073 208.664 108.26L210.564 108.64C211.43 108.813 212.084 109.107 212.524 109.52C212.977 109.933 213.204 110.493 213.204 111.2C213.204 112.133 212.837 112.867 212.104 113.4C211.37 113.92 210.397 114.18 209.184 114.18ZM215.851 117.6V104.24H217.831V105.9C218.111 105.34 218.538 104.893 219.111 104.56C219.685 104.227 220.345 104.06 221.091 104.06C221.958 104.06 222.711 104.267 223.351 104.68C224.005 105.093 224.505 105.68 224.851 106.44C225.211 107.187 225.391 108.08 225.391 109.12C225.391 110.16 225.211 111.06 224.851 111.82C224.505 112.58 224.005 113.167 223.351 113.58C222.711 113.98 221.958 114.18 221.091 114.18C220.371 114.18 219.725 114.027 219.151 113.72C218.591 113.4 218.165 112.967 217.871 112.42V117.6H215.851ZM220.591 112.62C221.431 112.62 222.098 112.32 222.591 111.72C223.098 111.12 223.351 110.253 223.351 109.12C223.351 107.987 223.098 107.127 222.591 106.54C222.098 105.94 221.431 105.64 220.591 105.64C219.751 105.64 219.078 105.94 218.571 106.54C218.078 107.127 217.831 107.987 217.831 109.12C217.831 110.253 218.078 111.12 218.571 111.72C219.078 112.32 219.751 112.62 220.591 112.62ZM231.188 114.18C230.508 114.18 229.901 114.047 229.368 113.78C228.834 113.513 228.408 113.153 228.088 112.7C227.781 112.247 227.628 111.733 227.628 111.16C227.628 110.44 227.808 109.873 228.168 109.46C228.541 109.047 229.148 108.747 229.988 108.56C230.841 108.373 231.988 108.28 233.428 108.28H234.108V107.76C234.108 107 233.948 106.453 233.628 106.12C233.308 105.787 232.781 105.62 232.048 105.62C231.488 105.62 230.928 105.707 230.368 105.88C229.808 106.04 229.234 106.3 228.648 106.66L228.028 105.24C228.534 104.88 229.168 104.593 229.928 104.38C230.688 104.167 231.414 104.06 232.108 104.06C233.441 104.06 234.428 104.38 235.068 105.02C235.708 105.647 236.028 106.633 236.028 107.98V114H234.128V112.38C233.888 112.94 233.514 113.38 233.008 113.7C232.501 114.02 231.894 114.18 231.188 114.18ZM231.588 112.74C232.308 112.74 232.908 112.487 233.388 111.98C233.868 111.473 234.108 110.833 234.108 110.06V109.52H233.448C232.474 109.52 231.708 109.567 231.148 109.66C230.601 109.753 230.208 109.913 229.968 110.14C229.741 110.353 229.628 110.653 229.628 111.04C229.628 111.547 229.801 111.96 230.148 112.28C230.494 112.587 230.974 112.74 231.588 112.74ZM247.984 114.18C247.304 114.18 246.697 114.047 246.164 113.78C245.63 113.513 245.204 113.153 244.884 112.7C244.577 112.247 244.424 111.733 244.424 111.16C244.424 110.44 244.604 109.873 244.964 109.46C245.337 109.047 245.944 108.747 246.784 108.56C247.637 108.373 248.784 108.28 250.224 108.28H250.904V107.76C250.904 107 250.744 106.453 250.424 106.12C250.104 105.787 249.577 105.62 248.844 105.62C248.284 105.62 247.724 105.707 247.164 105.88C246.604 106.04 246.03 106.3 245.444 106.66L244.824 105.24C245.33 104.88 245.964 104.593 246.724 104.38C247.484 104.167 248.21 104.06 248.904 104.06C250.237 104.06 251.224 104.38 251.864 105.02C252.504 105.647 252.824 106.633 252.824 107.98V114H250.924V112.38C250.684 112.94 250.31 113.38 249.804 113.7C249.297 114.02 248.69 114.18 247.984 114.18ZM248.384 112.74C249.104 112.74 249.704 112.487 250.184 111.98C250.664 111.473 250.904 110.833 250.904 110.06V109.52H250.244C249.27 109.52 248.504 109.567 247.944 109.66C247.397 109.753 247.004 109.913 246.764 110.14C246.537 110.353 246.424 110.653 246.424 111.04C246.424 111.547 246.597 111.96 246.944 112.28C247.29 112.587 247.77 112.74 248.384 112.74ZM256.006 114V104.24H257.966V105.86C258.299 105.273 258.753 104.827 259.326 104.52C259.913 104.213 260.566 104.06 261.286 104.06C263.593 104.06 264.746 105.367 264.746 107.98V114H262.726V108.1C262.726 107.26 262.559 106.647 262.226 106.26C261.906 105.873 261.399 105.68 260.706 105.68C259.893 105.68 259.239 105.94 258.746 106.46C258.266 106.967 258.026 107.64 258.026 108.48V114H256.006ZM271.649 114.18C270.796 114.18 270.043 113.98 269.389 113.58C268.749 113.167 268.249 112.58 267.889 111.82C267.529 111.06 267.349 110.16 267.349 109.12C267.349 108.08 267.529 107.187 267.889 106.44C268.249 105.68 268.749 105.093 269.389 104.68C270.029 104.267 270.783 104.06 271.649 104.06C272.383 104.06 273.036 104.22 273.609 104.54C274.183 104.86 274.609 105.293 274.889 105.84V99.9H276.909V114H274.929V112.3C274.649 112.887 274.216 113.347 273.629 113.68C273.056 114.013 272.396 114.18 271.649 114.18ZM272.169 112.62C272.996 112.62 273.663 112.32 274.169 111.72C274.676 111.12 274.929 110.253 274.929 109.12C274.929 107.987 274.676 107.127 274.169 106.54C273.663 105.94 272.996 105.64 272.169 105.64C271.329 105.64 270.656 105.94 270.149 106.54C269.643 107.127 269.389 107.987 269.389 109.12C269.389 110.253 269.643 111.12 270.149 111.72C270.656 112.32 271.329 112.62 272.169 112.62ZM288.44 114L284.72 104.24H286.8L289.42 111.64L292.12 104.24H293.68L296.34 111.68L299 104.24H300.98L297.26 114H295.42L292.84 107.02L290.28 114H288.44ZM307.518 114.18C305.918 114.18 304.658 113.733 303.738 112.84C302.818 111.933 302.358 110.7 302.358 109.14C302.358 108.14 302.558 107.26 302.958 106.5C303.371 105.727 303.938 105.127 304.658 104.7C305.378 104.273 306.205 104.06 307.138 104.06C308.485 104.06 309.545 104.493 310.318 105.36C311.091 106.213 311.478 107.393 311.478 108.9V109.58H304.318C304.465 111.607 305.538 112.62 307.538 112.62C308.098 112.62 308.645 112.533 309.178 112.36C309.725 112.187 310.238 111.9 310.718 111.5L311.318 112.9C310.878 113.3 310.311 113.613 309.618 113.84C308.925 114.067 308.225 114.18 307.518 114.18ZM307.218 105.48C306.378 105.48 305.711 105.74 305.218 106.26C304.725 106.78 304.425 107.473 304.318 108.34H309.778C309.738 107.433 309.498 106.733 309.058 106.24C308.618 105.733 308.005 105.48 307.218 105.48ZM317.26 114.18C316.193 114.18 315.393 113.88 314.86 113.28C314.34 112.68 314.08 111.8 314.08 110.64V99.9H316.1V110.52C316.1 111.84 316.64 112.5 317.72 112.5C317.88 112.5 318.027 112.493 318.16 112.48C318.307 112.467 318.453 112.44 318.6 112.4L318.56 114.02C318.107 114.127 317.673 114.18 317.26 114.18ZM323.773 114.18C322.707 114.18 321.907 113.88 321.373 113.28C320.853 112.68 320.593 111.8 320.593 110.64V99.9H322.613V110.52C322.613 111.84 323.153 112.5 324.233 112.5C324.393 112.5 324.54 112.493 324.673 112.48C324.82 112.467 324.967 112.44 325.113 112.4L325.073 114.02C324.62 114.127 324.187 114.18 323.773 114.18ZM327.107 114V104.24H329.067V105.86C329.4 105.273 329.853 104.827 330.427 104.52C331.013 104.213 331.667 104.06 332.387 104.06C334.693 104.06 335.847 105.367 335.847 107.98V114H333.827V108.1C333.827 107.26 333.66 106.647 333.327 106.26C333.007 105.873 332.5 105.68 331.807 105.68C330.993 105.68 330.34 105.94 329.847 106.46C329.367 106.967 329.127 107.64 329.127 108.48V114H327.107ZM343.61 114.18C342.01 114.18 340.75 113.733 339.83 112.84C338.91 111.933 338.45 110.7 338.45 109.14C338.45 108.14 338.65 107.26 339.05 106.5C339.463 105.727 340.03 105.127 340.75 104.7C341.47 104.273 342.297 104.06 343.23 104.06C344.577 104.06 345.637 104.493 346.41 105.36C347.183 106.213 347.57 107.393 347.57 108.9V109.58H340.41C340.557 111.607 341.63 112.62 343.63 112.62C344.19 112.62 344.737 112.533 345.27 112.36C345.817 112.187 346.33 111.9 346.81 111.5L347.41 112.9C346.97 113.3 346.403 113.613 345.71 113.84C345.017 114.067 344.317 114.18 343.61 114.18ZM343.31 105.48C342.47 105.48 341.803 105.74 341.31 106.26C340.817 106.78 340.517 107.473 340.41 108.34H345.87C345.83 107.433 345.59 106.733 345.15 106.24C344.71 105.733 344.097 105.48 343.31 105.48ZM353.592 114.18C352.792 114.18 352.046 114.08 351.352 113.88C350.659 113.667 350.079 113.373 349.612 113L350.192 111.64C350.686 111.987 351.226 112.253 351.812 112.44C352.412 112.627 353.012 112.72 353.612 112.72C354.319 112.72 354.852 112.593 355.212 112.34C355.572 112.087 355.752 111.747 355.752 111.32C355.752 110.973 355.632 110.707 355.392 110.52C355.152 110.32 354.792 110.167 354.312 110.06L352.412 109.68C350.732 109.333 349.892 108.467 349.892 107.08C349.892 106.16 350.259 105.427 350.992 104.88C351.726 104.333 352.686 104.06 353.872 104.06C354.552 104.06 355.199 104.16 355.812 104.36C356.439 104.56 356.959 104.86 357.372 105.26L356.792 106.62C356.392 106.273 355.932 106.007 355.412 105.82C354.892 105.633 354.379 105.54 353.872 105.54C353.179 105.54 352.652 105.673 352.292 105.94C351.932 106.193 351.752 106.54 351.752 106.98C351.752 107.647 352.192 108.073 353.072 108.26L354.972 108.64C355.839 108.813 356.492 109.107 356.932 109.52C357.386 109.933 357.612 110.493 357.612 111.2C357.612 112.133 357.246 112.867 356.512 113.4C355.779 113.92 354.806 114.18 353.592 114.18ZM363.68 114.18C362.88 114.18 362.133 114.08 361.44 113.88C360.747 113.667 360.167 113.373 359.7 113L360.28 111.64C360.773 111.987 361.313 112.253 361.9 112.44C362.5 112.627 363.1 112.72 363.7 112.72C364.407 112.72 364.94 112.593 365.3 112.34C365.66 112.087 365.84 111.747 365.84 111.32C365.84 110.973 365.72 110.707 365.48 110.52C365.24 110.32 364.88 110.167 364.4 110.06L362.5 109.68C360.82 109.333 359.98 108.467 359.98 107.08C359.98 106.16 360.347 105.427 361.08 104.88C361.813 104.333 362.773 104.06 363.96 104.06C364.64 104.06 365.287 104.16 365.9 104.36C366.527 104.56 367.047 104.86 367.46 105.26L366.88 106.62C366.48 106.273 366.02 106.007 365.5 105.82C364.98 105.633 364.467 105.54 363.96 105.54C363.267 105.54 362.74 105.673 362.38 105.94C362.02 106.193 361.84 106.54 361.84 106.98C361.84 107.647 362.28 108.073 363.16 108.26L365.06 108.64C365.927 108.813 366.58 109.107 367.02 109.52C367.473 109.933 367.7 110.493 367.7 111.2C367.7 112.133 367.333 112.867 366.6 113.4C365.867 113.92 364.893 114.18 363.68 114.18Z" fill="#545567"/>
</g>
<defs>
<filter id="filter0_d_2110_1584" x="0" y="0" width="490" height="213" filterUnits="userSpaceOnUse" color-interpolation-filters="sRGB">
<feFlood flood-opacity="0" result="BackgroundImageFix"/>
<feColorMatrix in="SourceAlpha" type="matrix" values="0 0 0 0 0 0 0 0 0 0 0 0 0 0 0 0 0 0 127 0" result="hardAlpha"/>
<feOffset dx="5" dy="15"/>
<feGaussianBlur stdDeviation="25"/>
<feComposite in2="hardAlpha" operator="out"/>
<feColorMatrix type="matrix" values="0 0 0 0 0 0 0 0 0 0 0 0 0 0 0 0 0 0 0.1 0"/>
<feBlend mode="normal" in2="BackgroundImageFix" result="effect1_dropShadow_2110_1584"/>
<feBlend mode="normal" in="SourceGraphic" in2="effect1_dropShadow_2110_1584" result="shape"/>
</filter>
<filter id="filter1_b_2110_1584" x="25" y="15" width="430" height="153" filterUnits="userSpaceOnUse" color-interpolation-filters="sRGB">
<feFlood flood-opacity="0" result="BackgroundImageFix"/>
<feGaussianBlur in="BackgroundImageFix" stdDeviation="10"/>
<feComposite in2="SourceAlpha" operator="in" result="effect1_backgroundBlur_2110_1584"/>
<feBlend mode="normal" in="SourceGraphic" in2="effect1_backgroundBlur_2110_1584" result="shape"/>
</filter>
<filter id="filter2_d_2110_1584" x="46" y="51" width="106" height="106" filterUnits="userSpaceOnUse" color-interpolation-filters="sRGB">
<feFlood flood-opacity="0" result="BackgroundImageFix"/>
<feColorMatrix in="SourceAlpha" type="matrix" values="0 0 0 0 0 0 0 0 0 0 0 0 0 0 0 0 0 0 127 0" result="hardAlpha"/>
<feOffset dy="15"/>
<feGaussianBlur stdDeviation="12.5"/>
<feColorMatrix type="matrix" values="0 0 0 0 0 0 0 0 0 0 0 0 0 0 0 0 0 0 0.06 0"/>
<feBlend mode="normal" in2="BackgroundImageFix" result="effect1_dropShadow_2110_1584"/>
<feBlend mode="normal" in="SourceGraphic" in2="effect1_dropShadow_2110_1584" result="shape"/>
</filter>
<clipPath id="clip0_2110_1584">
<rect width="31" height="31" fill="white" transform="translate(83 74)"/>
</clipPath>
</defs>
</svg>
