<svg width="278" height="212" viewBox="0 0 278 212" fill="none" xmlns="http://www.w3.org/2000/svg">
<g filter="url(#filter0_d_2110_1579)">
<rect x="45" y="36" width="178" height="111" rx="20" fill="white"/>
</g>
<path d="M81.3739 74.832V86H79.1339V81.248H74.3499V86H72.1099V74.832H74.3499V79.424H79.1339V74.832H81.3739ZM83.0026 81.536C83.0026 80.64 83.1786 79.8453 83.5306 79.152C83.8933 78.4587 84.3786 77.9253 84.9866 77.552C85.6053 77.1787 86.2933 76.992 87.0506 76.992C87.7119 76.992 88.2879 77.1253 88.7786 77.392C89.2799 77.6587 89.6799 77.9947 89.9786 78.4V77.136H92.2346V86H89.9786V84.704C89.6906 85.12 89.2906 85.4667 88.7786 85.744C88.2773 86.0107 87.6959 86.144 87.0346 86.144C86.2879 86.144 85.6053 85.952 84.9866 85.568C84.3786 85.184 83.8933 84.6453 83.5306 83.952C83.1786 83.248 83.0026 82.4427 83.0026 81.536ZM89.9786 81.568C89.9786 81.024 89.8719 80.56 89.6586 80.176C89.4453 79.7813 89.1573 79.4827 88.7946 79.28C88.4319 79.0667 88.0426 78.96 87.6266 78.96C87.2106 78.96 86.8266 79.0613 86.4746 79.264C86.1226 79.4667 85.8346 79.7653 85.6106 80.16C85.3973 80.544 85.2906 81.0027 85.2906 81.536C85.2906 82.0693 85.3973 82.5387 85.6106 82.944C85.8346 83.3387 86.1226 83.6427 86.4746 83.856C86.8373 84.0693 87.2213 84.176 87.6266 84.176C88.0426 84.176 88.4319 84.0747 88.7946 83.872C89.1573 83.6587 89.4453 83.36 89.6586 82.976C89.8719 82.5813 89.9786 82.112 89.9786 81.568ZM96.6624 78.416C96.9504 78.0107 97.345 77.6747 97.8464 77.408C98.3584 77.1307 98.9397 76.992 99.5904 76.992C100.348 76.992 101.03 77.1787 101.638 77.552C102.257 77.9253 102.742 78.4587 103.094 79.152C103.457 79.8347 103.638 80.6293 103.638 81.536C103.638 82.4427 103.457 83.248 103.094 83.952C102.742 84.6453 102.257 85.184 101.638 85.568C101.03 85.952 100.348 86.144 99.5904 86.144C98.9397 86.144 98.3637 86.0107 97.8624 85.744C97.3717 85.4773 96.9717 85.1413 96.6624 84.736V90.224H94.4224V77.136H96.6624V78.416ZM101.35 81.536C101.35 81.0027 101.238 80.544 101.014 80.16C100.801 79.7653 100.513 79.4667 100.15 79.264C99.7984 79.0613 99.4144 78.96 98.9984 78.96C98.593 78.96 98.209 79.0667 97.8464 79.28C97.4944 79.4827 97.2064 79.7813 96.9824 80.176C96.769 80.5707 96.6624 81.0347 96.6624 81.568C96.6624 82.1013 96.769 82.5653 96.9824 82.96C97.2064 83.3547 97.4944 83.6587 97.8464 83.872C98.209 84.0747 98.593 84.176 98.9984 84.176C99.4144 84.176 99.7984 84.0693 100.15 83.856C100.513 83.6427 100.801 83.3387 101.014 82.944C101.238 82.5493 101.35 82.08 101.35 81.536ZM107.506 78.416C107.794 78.0107 108.189 77.6747 108.69 77.408C109.202 77.1307 109.783 76.992 110.434 76.992C111.191 76.992 111.874 77.1787 112.482 77.552C113.101 77.9253 113.586 78.4587 113.938 79.152C114.301 79.8347 114.482 80.6293 114.482 81.536C114.482 82.4427 114.301 83.248 113.938 83.952C113.586 84.6453 113.101 85.184 112.482 85.568C111.874 85.952 111.191 86.144 110.434 86.144C109.783 86.144 109.207 86.0107 108.706 85.744C108.215 85.4773 107.815 85.1413 107.506 84.736V90.224H105.266V77.136H107.506V78.416ZM112.194 81.536C112.194 81.0027 112.082 80.544 111.858 80.16C111.645 79.7653 111.357 79.4667 110.994 79.264C110.642 79.0613 110.258 78.96 109.842 78.96C109.437 78.96 109.053 79.0667 108.69 79.28C108.338 79.4827 108.05 79.7813 107.826 80.176C107.613 80.5707 107.506 81.0347 107.506 81.568C107.506 82.1013 107.613 82.5653 107.826 82.96C108.05 83.3547 108.338 83.6587 108.69 83.872C109.053 84.0747 109.437 84.176 109.842 84.176C110.258 84.176 110.642 84.0693 110.994 83.856C111.357 83.6427 111.645 83.3387 111.858 82.944C112.082 82.5493 112.194 82.08 112.194 81.536ZM124.59 77.136L119.102 90.192H116.718L118.638 85.776L115.086 77.136H117.598L119.886 83.328L122.206 77.136H124.59ZM135.946 80.272C136.575 80.3893 137.093 80.704 137.498 81.216C137.903 81.728 138.106 82.3147 138.106 82.976C138.106 83.5733 137.957 84.1013 137.658 84.56C137.37 85.008 136.949 85.36 136.394 85.616C135.839 85.872 135.183 86 134.426 86H129.61V74.832H134.218C134.975 74.832 135.626 74.9547 136.17 75.2C136.725 75.4453 137.141 75.7867 137.418 76.224C137.706 76.6613 137.85 77.1573 137.85 77.712C137.85 78.3627 137.674 78.9067 137.322 79.344C136.981 79.7813 136.522 80.0907 135.946 80.272ZM131.85 79.44H133.898C134.431 79.44 134.842 79.3227 135.13 79.088C135.418 78.8427 135.562 78.496 135.562 78.048C135.562 77.6 135.418 77.2533 135.13 77.008C134.842 76.7627 134.431 76.64 133.898 76.64H131.85V79.44ZM134.106 84.176C134.65 84.176 135.071 84.048 135.37 83.792C135.679 83.536 135.834 83.1733 135.834 82.704C135.834 82.224 135.674 81.8507 135.354 81.584C135.034 81.3067 134.602 81.168 134.058 81.168H131.85V84.176H134.106ZM141.027 76.08C140.632 76.08 140.302 75.9573 140.035 75.712C139.779 75.456 139.651 75.1413 139.651 74.768C139.651 74.3947 139.779 74.0853 140.035 73.84C140.302 73.584 140.632 73.456 141.027 73.456C141.422 73.456 141.747 73.584 142.003 73.84C142.27 74.0853 142.403 74.3947 142.403 74.768C142.403 75.1413 142.27 75.456 142.003 75.712C141.747 75.9573 141.422 76.08 141.027 76.08ZM142.131 77.136V86H139.891V77.136H142.131ZM146.584 78.512C146.872 78.0427 147.246 77.6747 147.704 77.408C148.174 77.1413 148.707 77.008 149.304 77.008V79.36H148.712C148.008 79.36 147.475 79.5253 147.112 79.856C146.76 80.1867 146.584 80.7627 146.584 81.584V86H144.344V77.136H146.584V78.512ZM153.421 78.976V83.264C153.421 83.5627 153.49 83.7813 153.629 83.92C153.778 84.048 154.024 84.112 154.365 84.112H155.405V86H153.997C152.109 86 151.165 85.0827 151.165 83.248V78.976H150.109V77.136H151.165V74.944H153.421V77.136H155.405V78.976H153.421ZM162.008 77.008C162.68 77.008 163.277 77.1573 163.8 77.456C164.323 77.744 164.728 78.176 165.016 78.752C165.315 79.3173 165.464 80 165.464 80.8V86H163.224V81.104C163.224 80.4 163.048 79.8613 162.696 79.488C162.344 79.104 161.864 78.912 161.256 78.912C160.637 78.912 160.147 79.104 159.784 79.488C159.432 79.8613 159.256 80.4 159.256 81.104V86H157.016V74.16H159.256V78.24C159.544 77.856 159.928 77.5573 160.408 77.344C160.888 77.12 161.421 77.008 162.008 77.008ZM167.018 81.536C167.018 80.64 167.194 79.8453 167.546 79.152C167.909 78.4587 168.4 77.9253 169.018 77.552C169.637 77.1787 170.325 76.992 171.082 76.992C171.658 76.992 172.208 77.12 172.73 77.376C173.253 77.6213 173.669 77.952 173.978 78.368V74.16H176.25V86H173.978V84.688C173.701 85.1253 173.312 85.4773 172.81 85.744C172.309 86.0107 171.728 86.144 171.066 86.144C170.32 86.144 169.637 85.952 169.018 85.568C168.4 85.184 167.909 84.6453 167.546 83.952C167.194 83.248 167.018 82.4427 167.018 81.536ZM173.994 81.568C173.994 81.024 173.888 80.56 173.674 80.176C173.461 79.7813 173.173 79.4827 172.81 79.28C172.448 79.0667 172.058 78.96 171.642 78.96C171.226 78.96 170.842 79.0613 170.49 79.264C170.138 79.4667 169.85 79.7653 169.626 80.16C169.413 80.544 169.306 81.0027 169.306 81.536C169.306 82.0693 169.413 82.5387 169.626 82.944C169.85 83.3387 170.138 83.6427 170.49 83.856C170.853 84.0693 171.237 84.176 171.642 84.176C172.058 84.176 172.448 84.0747 172.81 83.872C173.173 83.6587 173.461 83.36 173.674 82.976C173.888 82.5813 173.994 82.112 173.994 81.568ZM177.862 81.536C177.862 80.64 178.038 79.8453 178.39 79.152C178.753 78.4587 179.238 77.9253 179.846 77.552C180.465 77.1787 181.153 76.992 181.91 76.992C182.571 76.992 183.147 77.1253 183.638 77.392C184.139 77.6587 184.539 77.9947 184.838 78.4V77.136H187.094V86H184.838V84.704C184.55 85.12 184.15 85.4667 183.638 85.744C183.137 86.0107 182.555 86.144 181.894 86.144C181.147 86.144 180.465 85.952 179.846 85.568C179.238 85.184 178.753 84.6453 178.39 83.952C178.038 83.248 177.862 82.4427 177.862 81.536ZM184.838 81.568C184.838 81.024 184.731 80.56 184.518 80.176C184.305 79.7813 184.017 79.4827 183.654 79.28C183.291 79.0667 182.902 78.96 182.486 78.96C182.07 78.96 181.686 79.0613 181.334 79.264C180.982 79.4667 180.694 79.7653 180.47 80.16C180.257 80.544 180.15 81.0027 180.15 81.536C180.15 82.0693 180.257 82.5387 180.47 82.944C180.694 83.3387 180.982 83.6427 181.334 83.856C181.697 84.0693 182.081 84.176 182.486 84.176C182.902 84.176 183.291 84.0747 183.654 83.872C184.017 83.6587 184.305 83.36 184.518 82.976C184.731 82.5813 184.838 82.112 184.838 81.568ZM197.762 77.136L192.274 90.192H189.89L191.81 85.776L188.258 77.136H190.77L193.058 83.328L195.378 77.136H197.762Z" fill="#111116"/>
<path d="M84.6406 115C84.5339 115 84.4433 114.968 84.3686 114.904C84.3046 114.829 84.2726 114.739 84.2726 114.632V112.328H79.0886C78.9819 112.328 78.8913 112.296 78.8166 112.232C78.7526 112.157 78.7206 112.067 78.7206 111.96V111.32C78.7206 111.277 78.7313 111.213 78.7526 111.128C78.7846 111.032 78.8326 110.936 78.8966 110.84L83.6966 104.072C83.8246 103.891 84.0219 103.8 84.2886 103.8H85.4406C85.5473 103.8 85.6326 103.837 85.6966 103.912C85.7713 103.976 85.8086 104.061 85.8086 104.168V110.936H87.2486C87.3659 110.936 87.4566 110.973 87.5206 111.048C87.5953 111.112 87.6326 111.197 87.6326 111.304V111.96C87.6326 112.067 87.5953 112.157 87.5206 112.232C87.4566 112.296 87.3713 112.328 87.2646 112.328H85.8086V114.632C85.8086 114.739 85.7713 114.829 85.6966 114.904C85.6326 114.968 85.5473 115 85.4406 115H84.6406ZM80.4326 110.968H84.2886V105.48L80.4326 110.968ZM93.2341 115.16C92.4981 115.16 91.8741 115.048 91.3621 114.824C90.8608 114.589 90.4501 114.269 90.1301 113.864C89.8101 113.459 89.5754 112.995 89.4261 112.472C89.2874 111.949 89.2074 111.395 89.1861 110.808C89.1754 110.52 89.1648 110.216 89.1541 109.896C89.1541 109.576 89.1541 109.256 89.1541 108.936C89.1648 108.605 89.1754 108.291 89.1861 107.992C89.1968 107.405 89.2768 106.851 89.4261 106.328C89.5861 105.795 89.8208 105.331 90.1301 104.936C90.4501 104.531 90.8661 104.216 91.3781 103.992C91.8901 103.757 92.5088 103.64 93.2341 103.64C93.9701 103.64 94.5888 103.757 95.0901 103.992C95.6021 104.216 96.0181 104.531 96.3381 104.936C96.6581 105.331 96.8928 105.795 97.0421 106.328C97.2021 106.851 97.2874 107.405 97.2981 107.992C97.3088 108.291 97.3141 108.605 97.3141 108.936C97.3248 109.256 97.3248 109.576 97.3141 109.896C97.3141 110.216 97.3088 110.52 97.2981 110.808C97.2874 111.395 97.2021 111.949 97.0421 112.472C96.8928 112.995 96.6581 113.459 96.3381 113.864C96.0288 114.269 95.6181 114.589 95.1061 114.824C94.6048 115.048 93.9808 115.16 93.2341 115.16ZM93.2341 113.8C94.0661 113.8 94.6794 113.528 95.0741 112.984C95.4794 112.429 95.6874 111.677 95.6981 110.728C95.7194 110.419 95.7301 110.12 95.7301 109.832C95.7301 109.533 95.7301 109.24 95.7301 108.952C95.7301 108.653 95.7194 108.36 95.6981 108.072C95.6874 107.144 95.4794 106.403 95.0741 105.848C94.6794 105.283 94.0661 105 93.2341 105C92.4128 105 91.7994 105.283 91.3941 105.848C90.9994 106.403 90.7914 107.144 90.7701 108.072C90.7701 108.36 90.7648 108.653 90.7541 108.952C90.7541 109.24 90.7541 109.533 90.7541 109.832C90.7648 110.12 90.7701 110.419 90.7701 110.728C90.7914 111.677 91.0048 112.429 91.4101 112.984C91.8154 113.528 92.4234 113.8 93.2341 113.8ZM99.8864 118.04C99.7797 118.04 99.689 118.003 99.6144 117.928C99.5504 117.864 99.5184 117.779 99.5184 117.672V107.048C99.5184 106.941 99.5504 106.856 99.6144 106.792C99.689 106.717 99.7797 106.68 99.8864 106.68H100.622C100.729 106.68 100.814 106.717 100.878 106.792C100.953 106.856 100.99 106.941 100.99 107.048V107.752C101.246 107.4 101.588 107.107 102.014 106.872C102.441 106.637 102.974 106.52 103.614 106.52C104.212 106.52 104.718 106.621 105.134 106.824C105.561 107.027 105.908 107.304 106.174 107.656C106.452 108.008 106.66 108.408 106.798 108.856C106.937 109.304 107.012 109.784 107.022 110.296C107.033 110.467 107.038 110.648 107.038 110.84C107.038 111.032 107.033 111.213 107.022 111.384C107.012 111.885 106.937 112.365 106.798 112.824C106.66 113.272 106.452 113.672 106.174 114.024C105.908 114.365 105.561 114.643 105.134 114.856C104.718 115.059 104.212 115.16 103.614 115.16C102.996 115.16 102.473 115.048 102.046 114.824C101.63 114.589 101.289 114.301 101.022 113.96V117.672C101.022 117.779 100.99 117.864 100.926 117.928C100.862 118.003 100.772 118.04 100.654 118.04H99.8864ZM103.278 113.864C103.833 113.864 104.265 113.747 104.574 113.512C104.894 113.267 105.124 112.952 105.262 112.568C105.401 112.173 105.481 111.752 105.502 111.304C105.513 110.995 105.513 110.685 105.502 110.376C105.481 109.928 105.401 109.512 105.262 109.128C105.124 108.733 104.894 108.419 104.574 108.184C104.265 107.939 103.833 107.816 103.278 107.816C102.756 107.816 102.329 107.939 101.998 108.184C101.678 108.429 101.438 108.744 101.278 109.128C101.129 109.501 101.044 109.885 101.022 110.28C101.012 110.451 101.006 110.653 101.006 110.888C101.006 111.123 101.012 111.331 101.022 111.512C101.033 111.885 101.118 112.253 101.278 112.616C101.449 112.979 101.7 113.277 102.03 113.512C102.361 113.747 102.777 113.864 103.278 113.864ZM112.188 115C111.591 115 111.105 114.888 110.732 114.664C110.359 114.429 110.087 114.104 109.916 113.688C109.745 113.261 109.66 112.76 109.66 112.184V107.96H108.412C108.305 107.96 108.215 107.928 108.14 107.864C108.076 107.789 108.044 107.699 108.044 107.592V107.048C108.044 106.941 108.076 106.856 108.14 106.792C108.215 106.717 108.305 106.68 108.412 106.68H109.66V104.008C109.66 103.901 109.692 103.816 109.756 103.752C109.831 103.677 109.921 103.64 110.028 103.64H110.78C110.887 103.64 110.972 103.677 111.036 103.752C111.111 103.816 111.148 103.901 111.148 104.008V106.68H113.132C113.239 106.68 113.324 106.717 113.388 106.792C113.463 106.856 113.5 106.941 113.5 107.048V107.592C113.5 107.699 113.463 107.789 113.388 107.864C113.324 107.928 113.239 107.96 113.132 107.96H111.148V112.072C111.148 112.573 111.233 112.968 111.404 113.256C111.575 113.544 111.879 113.688 112.316 113.688H113.292C113.399 113.688 113.484 113.725 113.548 113.8C113.623 113.864 113.66 113.949 113.66 114.056V114.632C113.66 114.739 113.623 114.829 113.548 114.904C113.484 114.968 113.399 115 113.292 115H112.188ZM118.07 115.16C117.473 115.16 116.961 115.085 116.534 114.936C116.107 114.787 115.761 114.605 115.494 114.392C115.227 114.179 115.025 113.965 114.886 113.752C114.758 113.539 114.689 113.368 114.678 113.24C114.667 113.123 114.705 113.032 114.79 112.968C114.875 112.904 114.961 112.872 115.046 112.872H115.75C115.814 112.872 115.862 112.883 115.894 112.904C115.937 112.915 115.99 112.957 116.054 113.032C116.193 113.181 116.347 113.331 116.518 113.48C116.689 113.629 116.897 113.752 117.142 113.848C117.398 113.944 117.713 113.992 118.086 113.992C118.63 113.992 119.078 113.891 119.43 113.688C119.782 113.475 119.958 113.165 119.958 112.76C119.958 112.493 119.883 112.28 119.734 112.12C119.595 111.96 119.339 111.816 118.966 111.688C118.603 111.56 118.102 111.427 117.462 111.288C116.822 111.139 116.315 110.957 115.942 110.744C115.569 110.52 115.302 110.259 115.142 109.96C114.982 109.651 114.902 109.304 114.902 108.92C114.902 108.525 115.019 108.147 115.254 107.784C115.489 107.411 115.83 107.107 116.278 106.872C116.737 106.637 117.307 106.52 117.99 106.52C118.545 106.52 119.019 106.589 119.414 106.728C119.809 106.867 120.134 107.043 120.39 107.256C120.646 107.459 120.838 107.661 120.966 107.864C121.094 108.067 121.163 108.237 121.174 108.376C121.185 108.483 121.153 108.573 121.078 108.648C121.003 108.712 120.918 108.744 120.822 108.744H120.15C120.075 108.744 120.011 108.728 119.958 108.696C119.915 108.664 119.873 108.627 119.83 108.584C119.723 108.445 119.595 108.307 119.446 108.168C119.307 108.029 119.121 107.917 118.886 107.832C118.662 107.736 118.363 107.688 117.99 107.688C117.457 107.688 117.057 107.8 116.79 108.024C116.523 108.248 116.39 108.531 116.39 108.872C116.39 109.075 116.449 109.256 116.566 109.416C116.683 109.576 116.907 109.72 117.238 109.848C117.569 109.976 118.059 110.115 118.71 110.264C119.414 110.403 119.969 110.589 120.374 110.824C120.779 111.059 121.067 111.331 121.238 111.64C121.409 111.949 121.494 112.307 121.494 112.712C121.494 113.16 121.361 113.571 121.094 113.944C120.838 114.317 120.454 114.616 119.942 114.84C119.441 115.053 118.817 115.16 118.07 115.16ZM127.636 115C127.529 115 127.439 114.968 127.364 114.904C127.3 114.829 127.268 114.739 127.268 114.632V107.064C127.268 106.957 127.3 106.867 127.364 106.792C127.439 106.717 127.529 106.68 127.636 106.68H128.372C128.479 106.68 128.569 106.717 128.644 106.792C128.719 106.867 128.756 106.957 128.756 107.064V107.768C128.969 107.405 129.263 107.133 129.636 106.952C130.009 106.771 130.457 106.68 130.98 106.68H131.62C131.727 106.68 131.812 106.717 131.876 106.792C131.94 106.856 131.972 106.941 131.972 107.048V107.704C131.972 107.811 131.94 107.896 131.876 107.96C131.812 108.024 131.727 108.056 131.62 108.056H130.66C130.084 108.056 129.631 108.227 129.3 108.568C128.969 108.899 128.804 109.352 128.804 109.928V114.632C128.804 114.739 128.767 114.829 128.692 114.904C128.617 114.968 128.527 115 128.42 115H127.636ZM136.502 115.16C135.403 115.16 134.529 114.824 133.878 114.152C133.227 113.469 132.87 112.541 132.806 111.368C132.795 111.229 132.79 111.053 132.79 110.84C132.79 110.616 132.795 110.435 132.806 110.296C132.849 109.539 133.025 108.877 133.334 108.312C133.643 107.736 134.065 107.293 134.598 106.984C135.142 106.675 135.777 106.52 136.502 106.52C137.313 106.52 137.99 106.691 138.534 107.032C139.089 107.373 139.51 107.859 139.798 108.488C140.086 109.117 140.23 109.853 140.23 110.696V110.968C140.23 111.085 140.193 111.176 140.118 111.24C140.054 111.304 139.969 111.336 139.862 111.336H134.326C134.326 111.347 134.326 111.368 134.326 111.4C134.326 111.432 134.326 111.459 134.326 111.48C134.347 111.917 134.443 112.328 134.614 112.712C134.785 113.085 135.03 113.389 135.35 113.624C135.67 113.859 136.054 113.976 136.502 113.976C136.886 113.976 137.206 113.917 137.462 113.8C137.718 113.683 137.926 113.555 138.086 113.416C138.246 113.267 138.353 113.155 138.406 113.08C138.502 112.941 138.577 112.861 138.63 112.84C138.683 112.808 138.769 112.792 138.886 112.792H139.654C139.761 112.792 139.846 112.824 139.91 112.888C139.985 112.941 140.017 113.021 140.006 113.128C139.995 113.288 139.91 113.485 139.75 113.72C139.59 113.944 139.361 114.168 139.062 114.392C138.763 114.616 138.401 114.803 137.974 114.952C137.547 115.091 137.057 115.16 136.502 115.16ZM134.326 110.232H138.71V110.184C138.71 109.704 138.619 109.277 138.438 108.904C138.267 108.531 138.017 108.237 137.686 108.024C137.355 107.8 136.961 107.688 136.502 107.688C136.043 107.688 135.649 107.8 135.318 108.024C134.998 108.237 134.753 108.531 134.582 108.904C134.411 109.277 134.326 109.704 134.326 110.184V110.232ZM145.503 115.16C144.746 115.16 144.09 115.016 143.535 114.728C142.991 114.429 142.57 114.008 142.271 113.464C141.972 112.909 141.812 112.248 141.791 111.48C141.78 111.32 141.775 111.107 141.775 110.84C141.775 110.573 141.78 110.36 141.791 110.2C141.812 109.432 141.972 108.776 142.271 108.232C142.57 107.677 142.991 107.256 143.535 106.968C144.09 106.669 144.746 106.52 145.503 106.52C146.122 106.52 146.65 106.605 147.087 106.776C147.535 106.947 147.903 107.165 148.191 107.432C148.479 107.699 148.692 107.987 148.831 108.296C148.98 108.605 149.06 108.899 149.071 109.176C149.082 109.283 149.05 109.368 148.975 109.432C148.9 109.496 148.81 109.528 148.703 109.528H147.935C147.828 109.528 147.748 109.507 147.695 109.464C147.642 109.411 147.588 109.325 147.535 109.208C147.343 108.685 147.082 108.317 146.751 108.104C146.42 107.891 146.01 107.784 145.519 107.784C144.879 107.784 144.356 107.981 143.951 108.376C143.556 108.771 143.343 109.405 143.311 110.28C143.3 110.664 143.3 111.037 143.311 111.4C143.343 112.285 143.556 112.925 143.951 113.32C144.356 113.704 144.879 113.896 145.519 113.896C146.01 113.896 146.42 113.789 146.751 113.576C147.082 113.363 147.343 112.995 147.535 112.472C147.588 112.355 147.642 112.275 147.695 112.232C147.748 112.179 147.828 112.152 147.935 112.152H148.703C148.81 112.152 148.9 112.184 148.975 112.248C149.05 112.312 149.082 112.397 149.071 112.504C149.06 112.728 149.012 112.957 148.927 113.192C148.842 113.427 148.703 113.667 148.511 113.912C148.33 114.147 148.1 114.36 147.823 114.552C147.546 114.733 147.21 114.883 146.815 115C146.431 115.107 145.994 115.16 145.503 115.16ZM154.283 115.16C153.184 115.16 152.31 114.824 151.659 114.152C151.008 113.469 150.651 112.541 150.587 111.368C150.576 111.229 150.571 111.053 150.571 110.84C150.571 110.616 150.576 110.435 150.587 110.296C150.63 109.539 150.806 108.877 151.115 108.312C151.424 107.736 151.846 107.293 152.379 106.984C152.923 106.675 153.558 106.52 154.283 106.52C155.094 106.52 155.771 106.691 156.315 107.032C156.87 107.373 157.291 107.859 157.579 108.488C157.867 109.117 158.011 109.853 158.011 110.696V110.968C158.011 111.085 157.974 111.176 157.899 111.24C157.835 111.304 157.75 111.336 157.643 111.336H152.107C152.107 111.347 152.107 111.368 152.107 111.4C152.107 111.432 152.107 111.459 152.107 111.48C152.128 111.917 152.224 112.328 152.395 112.712C152.566 113.085 152.811 113.389 153.131 113.624C153.451 113.859 153.835 113.976 154.283 113.976C154.667 113.976 154.987 113.917 155.243 113.8C155.499 113.683 155.707 113.555 155.867 113.416C156.027 113.267 156.134 113.155 156.187 113.08C156.283 112.941 156.358 112.861 156.411 112.84C156.464 112.808 156.55 112.792 156.667 112.792H157.435C157.542 112.792 157.627 112.824 157.691 112.888C157.766 112.941 157.798 113.021 157.787 113.128C157.776 113.288 157.691 113.485 157.531 113.72C157.371 113.944 157.142 114.168 156.843 114.392C156.544 114.616 156.182 114.803 155.755 114.952C155.328 115.091 154.838 115.16 154.283 115.16ZM152.107 110.232H156.491V110.184C156.491 109.704 156.4 109.277 156.219 108.904C156.048 108.531 155.798 108.237 155.467 108.024C155.136 107.8 154.742 107.688 154.283 107.688C153.824 107.688 153.43 107.8 153.099 108.024C152.779 108.237 152.534 108.531 152.363 108.904C152.192 109.277 152.107 109.704 152.107 110.184V110.232ZM160.292 115C160.186 115 160.095 114.968 160.02 114.904C159.956 114.829 159.924 114.739 159.924 114.632V107.048C159.924 106.941 159.956 106.856 160.02 106.792C160.095 106.717 160.186 106.68 160.292 106.68H161.06C161.167 106.68 161.252 106.717 161.316 106.792C161.38 106.856 161.412 106.941 161.412 107.048V114.632C161.412 114.739 161.38 114.829 161.316 114.904C161.252 114.968 161.167 115 161.06 115H160.292ZM160.164 105.128C160.058 105.128 159.967 105.096 159.892 105.032C159.828 104.957 159.796 104.867 159.796 104.76V103.896C159.796 103.789 159.828 103.704 159.892 103.64C159.967 103.565 160.058 103.528 160.164 103.528H161.172C161.279 103.528 161.364 103.565 161.428 103.64C161.503 103.704 161.54 103.789 161.54 103.896V104.76C161.54 104.867 161.503 104.957 161.428 105.032C161.364 105.096 161.279 105.128 161.172 105.128H160.164ZM166.695 115C166.535 115 166.407 114.963 166.311 114.888C166.226 114.813 166.157 114.717 166.103 114.6L163.143 107.176C163.122 107.123 163.111 107.069 163.111 107.016C163.111 106.92 163.143 106.84 163.207 106.776C163.271 106.712 163.351 106.68 163.447 106.68H164.215C164.333 106.68 164.423 106.712 164.487 106.776C164.551 106.84 164.589 106.899 164.599 106.952L167.047 113.256L169.479 106.952C169.501 106.899 169.538 106.84 169.591 106.776C169.655 106.712 169.746 106.68 169.863 106.68H170.647C170.733 106.68 170.807 106.712 170.871 106.776C170.946 106.84 170.983 106.92 170.983 107.016C170.983 107.069 170.973 107.123 170.951 107.176L167.975 114.6C167.933 114.717 167.863 114.813 167.767 114.888C167.682 114.963 167.554 115 167.383 115H166.695ZM175.674 115.16C174.575 115.16 173.7 114.824 173.05 114.152C172.399 113.469 172.042 112.541 171.978 111.368C171.967 111.229 171.962 111.053 171.962 110.84C171.962 110.616 171.967 110.435 171.978 110.296C172.02 109.539 172.196 108.877 172.506 108.312C172.815 107.736 173.236 107.293 173.77 106.984C174.314 106.675 174.948 106.52 175.674 106.52C176.484 106.52 177.162 106.691 177.706 107.032C178.26 107.373 178.682 107.859 178.97 108.488C179.258 109.117 179.402 109.853 179.402 110.696V110.968C179.402 111.085 179.364 111.176 179.29 111.24C179.226 111.304 179.14 111.336 179.034 111.336H173.498C173.498 111.347 173.498 111.368 173.498 111.4C173.498 111.432 173.498 111.459 173.498 111.48C173.519 111.917 173.615 112.328 173.786 112.712C173.956 113.085 174.202 113.389 174.522 113.624C174.842 113.859 175.226 113.976 175.674 113.976C176.058 113.976 176.378 113.917 176.634 113.8C176.89 113.683 177.098 113.555 177.258 113.416C177.418 113.267 177.524 113.155 177.578 113.08C177.674 112.941 177.748 112.861 177.802 112.84C177.855 112.808 177.94 112.792 178.058 112.792H178.826C178.932 112.792 179.018 112.824 179.082 112.888C179.156 112.941 179.188 113.021 179.178 113.128C179.167 113.288 179.082 113.485 178.922 113.72C178.762 113.944 178.532 114.168 178.234 114.392C177.935 114.616 177.572 114.803 177.146 114.952C176.719 115.091 176.228 115.16 175.674 115.16ZM173.498 110.232H177.882V110.184C177.882 109.704 177.791 109.277 177.61 108.904C177.439 108.531 177.188 108.237 176.858 108.024C176.527 107.8 176.132 107.688 175.674 107.688C175.215 107.688 174.82 107.8 174.49 108.024C174.17 108.237 173.924 108.531 173.754 108.904C173.583 109.277 173.498 109.704 173.498 110.184V110.232ZM184.355 115.16C183.768 115.16 183.262 115.059 182.835 114.856C182.408 114.643 182.056 114.36 181.779 114.008C181.512 113.645 181.31 113.235 181.171 112.776C181.043 112.317 180.968 111.832 180.947 111.32C180.936 111.149 180.931 110.989 180.931 110.84C180.931 110.691 180.936 110.531 180.947 110.36C180.968 109.859 181.043 109.379 181.171 108.92C181.31 108.461 181.512 108.051 181.779 107.688C182.056 107.325 182.408 107.043 182.835 106.84C183.262 106.627 183.768 106.52 184.355 106.52C184.984 106.52 185.507 106.632 185.923 106.856C186.339 107.08 186.68 107.357 186.947 107.688V104.008C186.947 103.901 186.979 103.816 187.043 103.752C187.118 103.677 187.208 103.64 187.315 103.64H188.083C188.19 103.64 188.275 103.677 188.339 103.752C188.414 103.816 188.451 103.901 188.451 104.008V114.632C188.451 114.739 188.414 114.829 188.339 114.904C188.275 114.968 188.19 115 188.083 115H187.363C187.246 115 187.155 114.968 187.091 114.904C187.027 114.829 186.995 114.739 186.995 114.632V113.96C186.728 114.301 186.382 114.589 185.955 114.824C185.528 115.048 184.995 115.16 184.355 115.16ZM184.691 113.864C185.224 113.864 185.651 113.741 185.971 113.496C186.291 113.251 186.531 112.941 186.691 112.568C186.851 112.184 186.936 111.795 186.947 111.4C186.958 111.229 186.963 111.027 186.963 110.792C186.963 110.547 186.958 110.339 186.947 110.168C186.936 109.795 186.846 109.427 186.675 109.064C186.515 108.701 186.27 108.403 185.939 108.168C185.619 107.933 185.203 107.816 184.691 107.816C184.147 107.816 183.715 107.939 183.395 108.184C183.075 108.419 182.846 108.733 182.707 109.128C182.568 109.512 182.488 109.928 182.467 110.376C182.456 110.685 182.456 110.995 182.467 111.304C182.488 111.752 182.568 112.173 182.707 112.568C182.846 112.952 183.075 113.267 183.395 113.512C183.715 113.747 184.147 113.864 184.691 113.864Z" fill="#6F6F76"/>
<g filter="url(#filter1_d_2110_1579)">
<circle cx="134" cy="36" r="24" fill="#F88C3D"/>
</g>
<path fill-rule="evenodd" clip-rule="evenodd" d="M146.57 38.826V42.9254H122.043V38.9884C122.929 39.3387 123.801 39.4338 124.63 39.2853C125.64 39.1044 126.564 38.5685 127.363 37.6984C128.427 38.8144 129.552 39.3526 130.735 39.341C131.933 39.3271 133.133 38.7401 134.326 37.6033C135.614 38.8283 136.864 39.3735 138.07 39.3085C139.214 39.2482 140.266 38.6497 141.237 37.5778C142.256 38.8121 143.395 39.3851 144.637 39.3549C145.27 39.3341 145.914 39.1554 146.57 38.826ZM120.269 44.5054H148.293C148.506 44.5054 148.68 44.677 148.68 44.8882V46.6839C148.68 46.8927 148.506 47.0667 148.293 47.0667H120.269C120.058 47.0667 119.882 46.895 119.882 46.6839V44.8882C119.882 44.677 120.056 44.5054 120.269 44.5054ZM132.566 31.3138V27.7572C132.566 27.3929 132.868 27.096 133.233 27.096H135.331C135.699 27.096 135.999 27.3953 135.999 27.7572V31.3138H132.566ZM134.283 21.8667C134.644 23.4559 135.734 24.2516 135.734 25.0497C135.734 25.8455 135.373 26.6389 134.283 26.6389C133.198 26.6389 132.833 25.8432 132.833 25.0497C132.833 24.2563 133.918 23.4605 134.283 21.8667ZM124.187 32.3972H144.396C145.678 32.3972 146.725 33.4366 146.725 34.7033V36.4549C145.842 37.1811 145.026 37.5685 144.281 37.5894C143.353 37.6126 142.467 37.0233 141.628 35.7404C141.581 35.6731 141.527 35.6104 141.455 35.5594C141.145 35.3367 140.714 35.4039 140.491 35.7102C139.645 36.8586 138.776 37.4989 137.883 37.5476C136.978 37.5964 135.968 37.0488 134.836 35.8216C134.82 35.8076 134.806 35.7914 134.792 35.7775C134.508 35.5223 134.072 35.5432 133.815 35.8216C132.755 36.9723 131.762 37.5708 130.841 37.5801C129.941 37.5894 129.031 37.028 128.118 35.861C128.078 35.8076 128.026 35.7612 127.968 35.7195C127.656 35.5014 127.222 35.5756 127.004 35.8842C126.329 36.8331 125.542 37.3945 124.696 37.5453C124.115 37.6474 123.491 37.55 122.826 37.2785C121.45 36.7217 121.949 36.4039 121.858 34.7056C121.788 33.4389 122.905 32.3972 124.187 32.3972ZM146.725 38.1416V38.2158H146.603C146.643 38.1949 146.683 38.1694 146.725 38.1416Z" fill="white"/>
<defs>
<filter id="filter0_d_2110_1579" x="0" y="1" width="278" height="211" filterUnits="userSpaceOnUse" color-interpolation-filters="sRGB">
<feFlood flood-opacity="0" result="BackgroundImageFix"/>
<feColorMatrix in="SourceAlpha" type="matrix" values="0 0 0 0 0 0 0 0 0 0 0 0 0 0 0 0 0 0 127 0" result="hardAlpha"/>
<feOffset dx="5" dy="15"/>
<feGaussianBlur stdDeviation="25"/>
<feColorMatrix type="matrix" values="0 0 0 0 0 0 0 0 0 0 0 0 0 0 0 0 0 0 0.1 0"/>
<feBlend mode="normal" in2="BackgroundImageFix" result="effect1_dropShadow_2110_1579"/>
<feBlend mode="normal" in="SourceGraphic" in2="effect1_dropShadow_2110_1579" result="shape"/>
</filter>
<filter id="filter1_d_2110_1579" x="92" y="0" width="88" height="88" filterUnits="userSpaceOnUse" color-interpolation-filters="sRGB">
<feFlood flood-opacity="0" result="BackgroundImageFix"/>
<feColorMatrix in="SourceAlpha" type="matrix" values="0 0 0 0 0 0 0 0 0 0 0 0 0 0 0 0 0 0 127 0" result="hardAlpha"/>
<feOffset dx="2" dy="8"/>
<feGaussianBlur stdDeviation="10"/>
<feComposite in2="hardAlpha" operator="out"/>
<feColorMatrix type="matrix" values="0 0 0 0 0.972549 0 0 0 0 0.54902 0 0 0 0 0.239216 0 0 0 0.25 0"/>
<feBlend mode="normal" in2="BackgroundImageFix" result="effect1_dropShadow_2110_1579"/>
<feBlend mode="normal" in="SourceGraphic" in2="effect1_dropShadow_2110_1579" result="shape"/>
</filter>
</defs>
</svg>
