<svg width="301" height="262" viewBox="0 0 301 262" fill="none" xmlns="http://www.w3.org/2000/svg">
<g filter="url(#filter0_d_2110_1568)">
<rect x="45.9355" y="36.0077" width="200.064" height="160.06" rx="20" fill="white"/>
</g>
<path d="M103.764 83.888V79.118H112.074V101.018H106.734V83.888H103.764ZM131.003 83.588H121.643V87.728C122.043 87.288 122.603 86.928 123.323 86.648C124.043 86.368 124.823 86.228 125.663 86.228C127.163 86.228 128.403 86.568 129.383 87.248C130.383 87.928 131.113 88.808 131.573 89.888C132.033 90.968 132.263 92.138 132.263 93.398C132.263 95.738 131.603 97.598 130.283 98.978C128.963 100.338 127.103 101.018 124.703 101.018C123.103 101.018 121.713 100.748 120.533 100.208C119.353 99.648 118.443 98.878 117.803 97.898C117.163 96.918 116.813 95.788 116.753 94.508H121.763C121.883 95.128 122.173 95.648 122.633 96.068C123.093 96.468 123.723 96.668 124.523 96.668C125.463 96.668 126.163 96.368 126.623 95.768C127.083 95.168 127.313 94.368 127.313 93.368C127.313 92.388 127.073 91.638 126.593 91.118C126.113 90.598 125.413 90.338 124.493 90.338C123.813 90.338 123.253 90.508 122.813 90.848C122.373 91.168 122.083 91.598 121.943 92.138H116.993V79.088H131.003V83.588ZM135.095 89.768C135.095 86.328 135.755 83.618 137.075 81.638C138.415 79.658 140.565 78.668 143.525 78.668C146.485 78.668 148.625 79.658 149.945 81.638C151.285 83.618 151.955 86.328 151.955 89.768C151.955 93.248 151.285 95.978 149.945 97.958C148.625 99.938 146.485 100.928 143.525 100.928C140.565 100.928 138.415 99.938 137.075 97.958C135.755 95.978 135.095 93.248 135.095 89.768ZM146.915 89.768C146.915 87.748 146.695 86.198 146.255 85.118C145.815 84.018 144.905 83.468 143.525 83.468C142.145 83.468 141.235 84.018 140.795 85.118C140.355 86.198 140.135 87.748 140.135 89.768C140.135 91.128 140.215 92.258 140.375 93.158C140.535 94.038 140.855 94.758 141.335 95.318C141.835 95.858 142.565 96.128 143.525 96.128C144.485 96.128 145.205 95.858 145.685 95.318C146.185 94.758 146.515 94.038 146.675 93.158C146.835 92.258 146.915 91.128 146.915 89.768ZM160.305 86.648C160.805 85.868 161.495 85.238 162.375 84.758C163.255 84.278 164.285 84.038 165.465 84.038C166.845 84.038 168.095 84.388 169.215 85.088C170.335 85.788 171.215 86.788 171.855 88.088C172.515 89.388 172.845 90.898 172.845 92.618C172.845 94.338 172.515 95.858 171.855 97.178C171.215 98.478 170.335 99.488 169.215 100.208C168.095 100.908 166.845 101.258 165.465 101.258C164.305 101.258 163.275 101.018 162.375 100.538C161.495 100.058 160.805 99.438 160.305 98.678V108.998H155.175V84.278H160.305V86.648ZM167.625 92.618C167.625 91.338 167.265 90.338 166.545 89.618C165.845 88.878 164.975 88.508 163.935 88.508C162.915 88.508 162.045 88.878 161.325 89.618C160.625 90.358 160.275 91.368 160.275 92.648C160.275 93.928 160.625 94.938 161.325 95.678C162.045 96.418 162.915 96.788 163.935 96.788C164.955 96.788 165.825 96.418 166.545 95.678C167.265 94.918 167.625 93.898 167.625 92.618ZM184.867 96.668V101.018H182.257C180.397 101.018 178.947 100.568 177.907 99.668C176.867 98.748 176.347 97.258 176.347 95.198V88.538H174.307V84.278H176.347V80.198H181.477V84.278H184.837V88.538H181.477V95.258C181.477 95.758 181.597 96.118 181.837 96.338C182.077 96.558 182.477 96.668 183.037 96.668H184.867ZM194.534 101.258C193.074 101.258 191.774 101.008 190.634 100.508C189.494 100.008 188.594 99.328 187.934 98.468C187.274 97.588 186.904 96.608 186.824 95.528H191.894C191.954 96.108 192.224 96.578 192.704 96.938C193.184 97.298 193.774 97.478 194.474 97.478C195.114 97.478 195.604 97.358 195.944 97.118C196.304 96.858 196.484 96.528 196.484 96.128C196.484 95.648 196.234 95.298 195.734 95.078C195.234 94.838 194.424 94.578 193.304 94.298C192.104 94.018 191.104 93.728 190.304 93.428C189.504 93.108 188.814 92.618 188.234 91.958C187.654 91.278 187.364 90.368 187.364 89.228C187.364 88.268 187.624 87.398 188.144 86.618C188.684 85.818 189.464 85.188 190.484 84.728C191.524 84.268 192.754 84.038 194.174 84.038C196.274 84.038 197.924 84.558 199.124 85.598C200.344 86.638 201.044 88.018 201.224 89.738H196.484C196.404 89.158 196.144 88.698 195.704 88.358C195.284 88.018 194.724 87.848 194.024 87.848C193.424 87.848 192.964 87.968 192.644 88.208C192.324 88.428 192.164 88.738 192.164 89.138C192.164 89.618 192.414 89.978 192.914 90.218C193.434 90.458 194.234 90.698 195.314 90.938C196.554 91.258 197.564 91.578 198.344 91.898C199.124 92.198 199.804 92.698 200.384 93.398C200.984 94.078 201.294 94.998 201.314 96.158C201.314 97.138 201.034 98.018 200.474 98.798C199.934 99.558 199.144 100.158 198.104 100.598C197.084 101.038 195.894 101.258 194.534 101.258Z" fill="#111116"/>
<path d="M85.9752 133.033C85.8432 133.033 85.7412 132.997 85.6692 132.925C85.5972 132.841 85.5612 132.739 85.5612 132.619V120.865C85.5612 120.733 85.5972 120.631 85.6692 120.559C85.7412 120.475 85.8432 120.433 85.9752 120.433H90.3672C91.7232 120.433 92.7972 120.751 93.5892 121.387C94.3812 122.023 94.7772 122.965 94.7772 124.213C94.7772 125.137 94.5432 125.893 94.0752 126.481C93.6192 127.057 92.9952 127.459 92.2032 127.687L94.9752 132.475C95.0112 132.547 95.0292 132.613 95.0292 132.673C95.0292 132.769 94.9872 132.853 94.9032 132.925C94.8312 132.997 94.7472 133.033 94.6512 133.033H93.7872C93.5832 133.033 93.4332 132.979 93.3372 132.871C93.2412 132.763 93.1572 132.655 93.0852 132.547L90.4752 127.975H87.3252V132.619C87.3252 132.739 87.2832 132.841 87.1992 132.925C87.1272 132.997 87.0252 133.033 86.8932 133.033H85.9752ZM87.3252 126.445H90.2952C91.1952 126.445 91.8672 126.259 92.3112 125.887C92.7552 125.503 92.9772 124.939 92.9772 124.195C92.9772 123.463 92.7552 122.905 92.3112 122.521C91.8792 122.137 91.2072 121.945 90.2952 121.945H87.3252V126.445ZM100.743 133.213C99.5067 133.213 98.5227 132.835 97.7907 132.079C97.0587 131.311 96.6567 130.267 96.5847 128.947C96.5727 128.791 96.5667 128.593 96.5667 128.353C96.5667 128.101 96.5727 127.897 96.5847 127.741C96.6327 126.889 96.8307 126.145 97.1787 125.509C97.5267 124.861 98.0007 124.363 98.6007 124.015C99.2127 123.667 99.9267 123.493 100.743 123.493C101.655 123.493 102.417 123.685 103.029 124.069C103.653 124.453 104.127 124.999 104.451 125.707C104.775 126.415 104.937 127.243 104.937 128.191V128.497C104.937 128.629 104.895 128.731 104.811 128.803C104.739 128.875 104.643 128.911 104.523 128.911H98.2947C98.2947 128.923 98.2947 128.947 98.2947 128.983C98.2947 129.019 98.2947 129.049 98.2947 129.073C98.3187 129.565 98.4267 130.027 98.6187 130.459C98.8107 130.879 99.0867 131.221 99.4467 131.485C99.8067 131.749 100.239 131.881 100.743 131.881C101.175 131.881 101.535 131.815 101.823 131.683C102.111 131.551 102.345 131.407 102.525 131.251C102.705 131.083 102.825 130.957 102.885 130.873C102.993 130.717 103.077 130.627 103.137 130.603C103.197 130.567 103.293 130.549 103.425 130.549H104.289C104.409 130.549 104.505 130.585 104.577 130.657C104.661 130.717 104.697 130.807 104.685 130.927C104.673 131.107 104.577 131.329 104.397 131.593C104.217 131.845 103.959 132.097 103.623 132.349C103.287 132.601 102.879 132.811 102.399 132.979C101.919 133.135 101.367 133.213 100.743 133.213ZM98.2947 127.669H103.227V127.615C103.227 127.075 103.125 126.595 102.921 126.175C102.729 125.755 102.447 125.425 102.075 125.185C101.703 124.933 101.259 124.807 100.743 124.807C100.227 124.807 99.7827 124.933 99.4107 125.185C99.0507 125.425 98.7747 125.755 98.5827 126.175C98.3907 126.595 98.2947 127.075 98.2947 127.615V127.669ZM110.869 133.213C110.017 133.213 109.279 133.051 108.655 132.727C108.043 132.391 107.569 131.917 107.233 131.305C106.897 130.681 106.717 129.937 106.693 129.073C106.681 128.893 106.675 128.653 106.675 128.353C106.675 128.053 106.681 127.813 106.693 127.633C106.717 126.769 106.897 126.031 107.233 125.419C107.569 124.795 108.043 124.321 108.655 123.997C109.279 123.661 110.017 123.493 110.869 123.493C111.565 123.493 112.159 123.589 112.651 123.781C113.155 123.973 113.569 124.219 113.893 124.519C114.217 124.819 114.457 125.143 114.613 125.491C114.781 125.839 114.871 126.169 114.883 126.481C114.895 126.601 114.859 126.697 114.775 126.769C114.691 126.841 114.589 126.877 114.469 126.877H113.605C113.485 126.877 113.395 126.853 113.335 126.805C113.275 126.745 113.215 126.649 113.155 126.517C112.939 125.929 112.645 125.515 112.273 125.275C111.901 125.035 111.439 124.915 110.887 124.915C110.167 124.915 109.579 125.137 109.123 125.581C108.679 126.025 108.439 126.739 108.403 127.723C108.391 128.155 108.391 128.575 108.403 128.983C108.439 129.979 108.679 130.699 109.123 131.143C109.579 131.575 110.167 131.791 110.887 131.791C111.439 131.791 111.901 131.671 112.273 131.431C112.645 131.191 112.939 130.777 113.155 130.189C113.215 130.057 113.275 129.967 113.335 129.919C113.395 129.859 113.485 129.829 113.605 129.829H114.469C114.589 129.829 114.691 129.865 114.775 129.937C114.859 130.009 114.895 130.105 114.883 130.225C114.871 130.477 114.817 130.735 114.721 130.999C114.625 131.263 114.469 131.533 114.253 131.809C114.049 132.073 113.791 132.313 113.479 132.529C113.167 132.733 112.789 132.901 112.345 133.033C111.913 133.153 111.421 133.213 110.869 133.213ZM120.747 133.213C119.511 133.213 118.527 132.835 117.795 132.079C117.063 131.311 116.661 130.267 116.589 128.947C116.577 128.791 116.571 128.593 116.571 128.353C116.571 128.101 116.577 127.897 116.589 127.741C116.637 126.889 116.835 126.145 117.183 125.509C117.531 124.861 118.005 124.363 118.605 124.015C119.217 123.667 119.931 123.493 120.747 123.493C121.659 123.493 122.421 123.685 123.033 124.069C123.657 124.453 124.131 124.999 124.455 125.707C124.779 126.415 124.941 127.243 124.941 128.191V128.497C124.941 128.629 124.899 128.731 124.815 128.803C124.743 128.875 124.647 128.911 124.527 128.911H118.299C118.299 128.923 118.299 128.947 118.299 128.983C118.299 129.019 118.299 129.049 118.299 129.073C118.323 129.565 118.431 130.027 118.623 130.459C118.815 130.879 119.091 131.221 119.451 131.485C119.811 131.749 120.243 131.881 120.747 131.881C121.179 131.881 121.539 131.815 121.827 131.683C122.115 131.551 122.349 131.407 122.529 131.251C122.709 131.083 122.829 130.957 122.889 130.873C122.997 130.717 123.081 130.627 123.141 130.603C123.201 130.567 123.297 130.549 123.429 130.549H124.293C124.413 130.549 124.509 130.585 124.581 130.657C124.665 130.717 124.701 130.807 124.689 130.927C124.677 131.107 124.581 131.329 124.401 131.593C124.221 131.845 123.963 132.097 123.627 132.349C123.291 132.601 122.883 132.811 122.403 132.979C121.923 133.135 121.371 133.213 120.747 133.213ZM118.299 127.669H123.231V127.615C123.231 127.075 123.129 126.595 122.925 126.175C122.733 125.755 122.451 125.425 122.079 125.185C121.707 124.933 121.263 124.807 120.747 124.807C120.231 124.807 119.787 124.933 119.415 125.185C119.055 125.425 118.779 125.755 118.587 126.175C118.395 126.595 118.299 127.075 118.299 127.615V127.669ZM127.507 133.033C127.387 133.033 127.285 132.997 127.201 132.925C127.129 132.841 127.093 132.739 127.093 132.619V124.087C127.093 123.967 127.129 123.871 127.201 123.799C127.285 123.715 127.387 123.673 127.507 123.673H128.371C128.491 123.673 128.587 123.715 128.659 123.799C128.731 123.871 128.767 123.967 128.767 124.087V132.619C128.767 132.739 128.731 132.841 128.659 132.925C128.587 132.997 128.491 133.033 128.371 133.033H127.507ZM127.363 121.927C127.243 121.927 127.141 121.891 127.057 121.819C126.985 121.735 126.949 121.633 126.949 121.513V120.541C126.949 120.421 126.985 120.325 127.057 120.253C127.141 120.169 127.243 120.127 127.363 120.127H128.497C128.617 120.127 128.713 120.169 128.785 120.253C128.869 120.325 128.911 120.421 128.911 120.541V121.513C128.911 121.633 128.869 121.735 128.785 121.819C128.713 121.891 128.617 121.927 128.497 121.927H127.363ZM134.71 133.033C134.53 133.033 134.386 132.991 134.278 132.907C134.182 132.823 134.104 132.715 134.044 132.583L130.714 124.231C130.69 124.171 130.678 124.111 130.678 124.051C130.678 123.943 130.714 123.853 130.786 123.781C130.858 123.709 130.948 123.673 131.056 123.673H131.92C132.052 123.673 132.154 123.709 132.226 123.781C132.298 123.853 132.34 123.919 132.352 123.979L135.106 131.071L137.842 123.979C137.866 123.919 137.908 123.853 137.968 123.781C138.04 123.709 138.142 123.673 138.274 123.673H139.156C139.252 123.673 139.336 123.709 139.408 123.781C139.492 123.853 139.534 123.943 139.534 124.051C139.534 124.111 139.522 124.171 139.498 124.231L136.15 132.583C136.102 132.715 136.024 132.823 135.916 132.907C135.82 132.991 135.676 133.033 135.484 133.033H134.71ZM144.811 133.213C143.575 133.213 142.591 132.835 141.859 132.079C141.127 131.311 140.725 130.267 140.653 128.947C140.641 128.791 140.635 128.593 140.635 128.353C140.635 128.101 140.641 127.897 140.653 127.741C140.701 126.889 140.899 126.145 141.247 125.509C141.595 124.861 142.069 124.363 142.669 124.015C143.281 123.667 143.995 123.493 144.811 123.493C145.723 123.493 146.485 123.685 147.097 124.069C147.721 124.453 148.195 124.999 148.519 125.707C148.843 126.415 149.005 127.243 149.005 128.191V128.497C149.005 128.629 148.963 128.731 148.879 128.803C148.807 128.875 148.711 128.911 148.591 128.911H142.363C142.363 128.923 142.363 128.947 142.363 128.983C142.363 129.019 142.363 129.049 142.363 129.073C142.387 129.565 142.495 130.027 142.687 130.459C142.879 130.879 143.155 131.221 143.515 131.485C143.875 131.749 144.307 131.881 144.811 131.881C145.243 131.881 145.603 131.815 145.891 131.683C146.179 131.551 146.413 131.407 146.593 131.251C146.773 131.083 146.893 130.957 146.953 130.873C147.061 130.717 147.145 130.627 147.205 130.603C147.265 130.567 147.361 130.549 147.493 130.549H148.357C148.477 130.549 148.573 130.585 148.645 130.657C148.729 130.717 148.765 130.807 148.753 130.927C148.741 131.107 148.645 131.329 148.465 131.593C148.285 131.845 148.027 132.097 147.691 132.349C147.355 132.601 146.947 132.811 146.467 132.979C145.987 133.135 145.435 133.213 144.811 133.213ZM142.363 127.669H147.295V127.615C147.295 127.075 147.193 126.595 146.989 126.175C146.797 125.755 146.515 125.425 146.143 125.185C145.771 124.933 145.327 124.807 144.811 124.807C144.295 124.807 143.851 124.933 143.479 125.185C143.119 125.425 142.843 125.755 142.651 126.175C142.459 126.595 142.363 127.075 142.363 127.615V127.669ZM154.577 133.213C153.917 133.213 153.347 133.099 152.867 132.871C152.387 132.631 151.991 132.313 151.679 131.917C151.379 131.509 151.151 131.047 150.995 130.531C150.851 130.015 150.767 129.469 150.743 128.893C150.731 128.701 150.725 128.521 150.725 128.353C150.725 128.185 150.731 128.005 150.743 127.813C150.767 127.249 150.851 126.709 150.995 126.193C151.151 125.677 151.379 125.215 151.679 124.807C151.991 124.399 152.387 124.081 152.867 123.853C153.347 123.613 153.917 123.493 154.577 123.493C155.285 123.493 155.873 123.619 156.341 123.871C156.809 124.123 157.193 124.435 157.493 124.807V120.667C157.493 120.547 157.529 120.451 157.601 120.379C157.685 120.295 157.787 120.253 157.907 120.253H158.771C158.891 120.253 158.987 120.295 159.059 120.379C159.143 120.451 159.185 120.547 159.185 120.667V132.619C159.185 132.739 159.143 132.841 159.059 132.925C158.987 132.997 158.891 133.033 158.771 133.033H157.961C157.829 133.033 157.727 132.997 157.655 132.925C157.583 132.841 157.547 132.739 157.547 132.619V131.863C157.247 132.247 156.857 132.571 156.377 132.835C155.897 133.087 155.297 133.213 154.577 133.213ZM154.955 131.755C155.555 131.755 156.035 131.617 156.395 131.341C156.755 131.065 157.025 130.717 157.205 130.297C157.385 129.865 157.481 129.427 157.493 128.983C157.505 128.791 157.511 128.563 157.511 128.299C157.511 128.023 157.505 127.789 157.493 127.597C157.481 127.177 157.379 126.763 157.187 126.355C157.007 125.947 156.731 125.611 156.359 125.347C155.999 125.083 155.531 124.951 154.955 124.951C154.343 124.951 153.857 125.089 153.497 125.365C153.137 125.629 152.879 125.983 152.723 126.427C152.567 126.859 152.477 127.327 152.453 127.831C152.441 128.179 152.441 128.527 152.453 128.875C152.477 129.379 152.567 129.853 152.723 130.297C152.879 130.729 153.137 131.083 153.497 131.359C153.857 131.623 154.343 131.755 154.955 131.755ZM167.291 133.033C167.171 133.033 167.069 132.997 166.985 132.925C166.913 132.841 166.877 132.739 166.877 132.619V125.113H165.347C165.227 125.113 165.125 125.077 165.041 125.005C164.969 124.921 164.933 124.819 164.933 124.699V124.087C164.933 123.967 164.969 123.871 165.041 123.799C165.125 123.715 165.227 123.673 165.347 123.673H166.877V122.773C166.877 122.161 166.979 121.627 167.183 121.171C167.387 120.703 167.711 120.343 168.155 120.091C168.611 119.839 169.217 119.713 169.973 119.713H171.053C171.173 119.713 171.269 119.755 171.341 119.839C171.413 119.911 171.449 120.007 171.449 120.127V120.739C171.449 120.859 171.413 120.961 171.341 121.045C171.269 121.117 171.173 121.153 171.053 121.153H170.009C169.445 121.153 169.061 121.303 168.857 121.603C168.653 121.891 168.551 122.311 168.551 122.863V123.673H170.873C170.993 123.673 171.089 123.715 171.161 123.799C171.233 123.871 171.269 123.967 171.269 124.087V124.699C171.269 124.819 171.233 124.921 171.161 125.005C171.089 125.077 170.993 125.113 170.873 125.113H168.551V132.619C168.551 132.739 168.509 132.841 168.425 132.925C168.353 132.997 168.257 133.033 168.137 133.033H167.291ZM173.28 133.033C173.16 133.033 173.058 132.997 172.974 132.925C172.902 132.841 172.866 132.739 172.866 132.619V124.105C172.866 123.985 172.902 123.883 172.974 123.799C173.058 123.715 173.16 123.673 173.28 123.673H174.108C174.228 123.673 174.33 123.715 174.414 123.799C174.498 123.883 174.54 123.985 174.54 124.105V124.897C174.78 124.489 175.11 124.183 175.53 123.979C175.95 123.775 176.454 123.673 177.042 123.673H177.762C177.882 123.673 177.978 123.715 178.05 123.799C178.122 123.871 178.158 123.967 178.158 124.087V124.825C178.158 124.945 178.122 125.041 178.05 125.113C177.978 125.185 177.882 125.221 177.762 125.221H176.682C176.034 125.221 175.524 125.413 175.152 125.797C174.78 126.169 174.594 126.679 174.594 127.327V132.619C174.594 132.739 174.552 132.841 174.468 132.925C174.384 132.997 174.282 133.033 174.162 133.033H173.28ZM183.362 133.213C182.45 133.213 181.688 133.039 181.076 132.691C180.464 132.343 179.996 131.863 179.672 131.251C179.348 130.627 179.168 129.919 179.132 129.127C179.12 128.923 179.114 128.665 179.114 128.353C179.114 128.029 179.12 127.771 179.132 127.579C179.168 126.775 179.348 126.067 179.672 125.455C180.008 124.843 180.482 124.363 181.094 124.015C181.706 123.667 182.462 123.493 183.362 123.493C184.262 123.493 185.018 123.667 185.63 124.015C186.242 124.363 186.71 124.843 187.034 125.455C187.37 126.067 187.556 126.775 187.592 127.579C187.604 127.771 187.61 128.029 187.61 128.353C187.61 128.665 187.604 128.923 187.592 129.127C187.556 129.919 187.376 130.627 187.052 131.251C186.728 131.863 186.26 132.343 185.648 132.691C185.036 133.039 184.274 133.213 183.362 133.213ZM183.362 131.827C184.106 131.827 184.7 131.593 185.144 131.125C185.588 130.645 185.828 129.949 185.864 129.037C185.876 128.857 185.882 128.629 185.882 128.353C185.882 128.077 185.876 127.849 185.864 127.669C185.828 126.757 185.588 126.067 185.144 125.599C184.7 125.119 184.106 124.879 183.362 124.879C182.618 124.879 182.018 125.119 181.562 125.599C181.118 126.067 180.884 126.757 180.86 127.669C180.848 127.849 180.842 128.077 180.842 128.353C180.842 128.629 180.848 128.857 180.86 129.037C180.884 129.949 181.118 130.645 181.562 131.125C182.018 131.593 182.618 131.827 183.362 131.827ZM190.278 133.033C190.158 133.033 190.056 132.997 189.972 132.925C189.9 132.841 189.864 132.739 189.864 132.619V124.087C189.864 123.967 189.9 123.871 189.972 123.799C190.056 123.715 190.158 123.673 190.278 123.673H191.088C191.208 123.673 191.304 123.715 191.376 123.799C191.46 123.871 191.502 123.967 191.502 124.087V124.717C191.778 124.345 192.126 124.051 192.546 123.835C192.966 123.607 193.47 123.493 194.058 123.493C195.414 123.481 196.374 124.033 196.938 125.149C197.214 124.645 197.616 124.243 198.144 123.943C198.672 123.643 199.272 123.493 199.944 123.493C200.568 123.493 201.132 123.637 201.636 123.925C202.152 124.213 202.554 124.651 202.842 125.239C203.142 125.815 203.292 126.541 203.292 127.417V132.619C203.292 132.739 203.25 132.841 203.166 132.925C203.094 132.997 202.998 133.033 202.878 133.033H202.032C201.912 133.033 201.81 132.997 201.726 132.925C201.654 132.841 201.618 132.739 201.618 132.619V127.579C201.618 126.907 201.522 126.379 201.33 125.995C201.138 125.611 200.88 125.341 200.556 125.185C200.232 125.029 199.878 124.951 199.494 124.951C199.182 124.951 198.864 125.029 198.54 125.185C198.216 125.341 197.946 125.611 197.73 125.995C197.526 126.379 197.424 126.907 197.424 127.579V132.619C197.424 132.739 197.382 132.841 197.298 132.925C197.226 132.997 197.13 133.033 197.01 133.033H196.164C196.044 133.033 195.942 132.997 195.858 132.925C195.786 132.841 195.75 132.739 195.75 132.619V127.579C195.75 126.907 195.648 126.379 195.444 125.995C195.24 125.611 194.976 125.341 194.652 125.185C194.328 125.029 193.986 124.951 193.626 124.951C193.314 124.951 192.996 125.029 192.672 125.185C192.348 125.341 192.078 125.611 191.862 125.995C191.658 126.379 191.556 126.901 191.556 127.561V132.619C191.556 132.739 191.514 132.841 191.43 132.925C191.358 132.997 191.262 133.033 191.142 133.033H190.278ZM89.8129 164.453C89.7169 164.453 89.6329 164.417 89.5609 164.345C89.4889 164.273 89.4529 164.189 89.4529 164.093C89.4529 164.045 89.4589 163.997 89.4709 163.949C89.4829 163.901 89.5069 163.841 89.5429 163.769L90.9289 160.475L87.4909 152.357C87.4309 152.213 87.4009 152.111 87.4009 152.051C87.4009 151.943 87.4369 151.853 87.5089 151.781C87.5809 151.709 87.6709 151.673 87.7789 151.673H88.6609C88.7809 151.673 88.8769 151.703 88.9489 151.763C89.0209 151.823 89.0689 151.895 89.0929 151.979L91.8289 158.531L94.6369 151.979C94.6729 151.895 94.7209 151.823 94.7809 151.763C94.8529 151.703 94.9549 151.673 95.0869 151.673H95.9329C96.0409 151.673 96.1309 151.709 96.2029 151.781C96.2749 151.853 96.3109 151.937 96.3109 152.033C96.3109 152.093 96.2809 152.201 96.2209 152.357L91.1089 164.147C91.0729 164.231 91.0189 164.303 90.9469 164.363C90.8869 164.423 90.7909 164.453 90.6589 164.453H89.8129ZM101.607 161.213C100.695 161.213 99.9326 161.039 99.3206 160.691C98.7086 160.343 98.2406 159.863 97.9166 159.251C97.5926 158.627 97.4126 157.919 97.3766 157.127C97.3646 156.923 97.3586 156.665 97.3586 156.353C97.3586 156.029 97.3646 155.771 97.3766 155.579C97.4126 154.775 97.5926 154.067 97.9166 153.455C98.2526 152.843 98.7266 152.363 99.3386 152.015C99.9506 151.667 100.707 151.493 101.607 151.493C102.507 151.493 103.263 151.667 103.875 152.015C104.487 152.363 104.955 152.843 105.279 153.455C105.615 154.067 105.801 154.775 105.837 155.579C105.849 155.771 105.855 156.029 105.855 156.353C105.855 156.665 105.849 156.923 105.837 157.127C105.801 157.919 105.621 158.627 105.297 159.251C104.973 159.863 104.505 160.343 103.893 160.691C103.281 161.039 102.519 161.213 101.607 161.213ZM101.607 159.827C102.351 159.827 102.945 159.593 103.389 159.125C103.833 158.645 104.073 157.949 104.109 157.037C104.121 156.857 104.127 156.629 104.127 156.353C104.127 156.077 104.121 155.849 104.109 155.669C104.073 154.757 103.833 154.067 103.389 153.599C102.945 153.119 102.351 152.879 101.607 152.879C100.863 152.879 100.263 153.119 99.8066 153.599C99.3626 154.067 99.1286 154.757 99.1046 155.669C99.0926 155.849 99.0866 156.077 99.0866 156.353C99.0866 156.629 99.0926 156.857 99.1046 157.037C99.1286 157.949 99.3626 158.645 99.8066 159.125C100.263 159.593 100.863 159.827 101.607 159.827ZM111.6 161.213C110.832 161.213 110.178 161.045 109.638 160.709C109.11 160.361 108.708 159.881 108.432 159.269C108.156 158.657 108.018 157.955 108.018 157.163V152.087C108.018 151.967 108.054 151.871 108.126 151.799C108.21 151.715 108.312 151.673 108.432 151.673H109.332C109.452 151.673 109.548 151.715 109.62 151.799C109.704 151.871 109.746 151.967 109.746 152.087V157.073C109.746 158.861 110.526 159.755 112.086 159.755C112.83 159.755 113.424 159.521 113.868 159.053C114.324 158.573 114.552 157.913 114.552 157.073V152.087C114.552 151.967 114.588 151.871 114.66 151.799C114.744 151.715 114.846 151.673 114.966 151.673H115.848C115.98 151.673 116.082 151.715 116.154 151.799C116.226 151.871 116.262 151.967 116.262 152.087V160.619C116.262 160.739 116.226 160.841 116.154 160.925C116.082 160.997 115.98 161.033 115.848 161.033H115.02C114.9 161.033 114.798 160.997 114.714 160.925C114.642 160.841 114.606 160.739 114.606 160.619V159.827C114.282 160.247 113.886 160.583 113.418 160.835C112.962 161.087 112.356 161.213 111.6 161.213ZM119.351 161.033C119.231 161.033 119.129 160.997 119.045 160.925C118.973 160.841 118.937 160.739 118.937 160.619V152.105C118.937 151.985 118.973 151.883 119.045 151.799C119.129 151.715 119.231 151.673 119.351 151.673H120.179C120.299 151.673 120.401 151.715 120.485 151.799C120.569 151.883 120.611 151.985 120.611 152.105V152.897C120.851 152.489 121.181 152.183 121.601 151.979C122.021 151.775 122.525 151.673 123.113 151.673H123.833C123.953 151.673 124.049 151.715 124.121 151.799C124.193 151.871 124.229 151.967 124.229 152.087V152.825C124.229 152.945 124.193 153.041 124.121 153.113C124.049 153.185 123.953 153.221 123.833 153.221H122.753C122.105 153.221 121.595 153.413 121.223 153.797C120.851 154.169 120.665 154.679 120.665 155.327V160.619C120.665 160.739 120.623 160.841 120.539 160.925C120.455 160.997 120.353 161.033 120.233 161.033H119.351ZM133.491 161.213C132.255 161.213 131.271 160.835 130.539 160.079C129.807 159.311 129.405 158.267 129.333 156.947C129.321 156.791 129.315 156.593 129.315 156.353C129.315 156.101 129.321 155.897 129.333 155.741C129.381 154.889 129.579 154.145 129.927 153.509C130.275 152.861 130.749 152.363 131.349 152.015C131.961 151.667 132.675 151.493 133.491 151.493C134.403 151.493 135.165 151.685 135.777 152.069C136.401 152.453 136.875 152.999 137.199 153.707C137.523 154.415 137.685 155.243 137.685 156.191V156.497C137.685 156.629 137.643 156.731 137.559 156.803C137.487 156.875 137.391 156.911 137.271 156.911H131.043C131.043 156.923 131.043 156.947 131.043 156.983C131.043 157.019 131.043 157.049 131.043 157.073C131.067 157.565 131.175 158.027 131.367 158.459C131.559 158.879 131.835 159.221 132.195 159.485C132.555 159.749 132.987 159.881 133.491 159.881C133.923 159.881 134.283 159.815 134.571 159.683C134.859 159.551 135.093 159.407 135.273 159.251C135.453 159.083 135.573 158.957 135.633 158.873C135.741 158.717 135.825 158.627 135.885 158.603C135.945 158.567 136.041 158.549 136.173 158.549H137.037C137.157 158.549 137.253 158.585 137.325 158.657C137.409 158.717 137.445 158.807 137.433 158.927C137.421 159.107 137.325 159.329 137.145 159.593C136.965 159.845 136.707 160.097 136.371 160.349C136.035 160.601 135.627 160.811 135.147 160.979C134.667 161.135 134.115 161.213 133.491 161.213ZM131.043 155.669H135.975V155.615C135.975 155.075 135.873 154.595 135.669 154.175C135.477 153.755 135.195 153.425 134.823 153.185C134.451 152.933 134.007 152.807 133.491 152.807C132.975 152.807 132.531 152.933 132.159 153.185C131.799 153.425 131.523 153.755 131.331 154.175C131.139 154.595 131.043 155.075 131.043 155.615V155.669ZM140.251 161.033C140.131 161.033 140.029 160.997 139.945 160.925C139.873 160.841 139.837 160.739 139.837 160.619V152.087C139.837 151.967 139.873 151.871 139.945 151.799C140.029 151.715 140.131 151.673 140.251 151.673H141.061C141.181 151.673 141.277 151.715 141.349 151.799C141.433 151.871 141.475 151.967 141.475 152.087V152.717C141.751 152.345 142.099 152.051 142.519 151.835C142.939 151.607 143.443 151.493 144.031 151.493C145.387 151.481 146.347 152.033 146.911 153.149C147.187 152.645 147.589 152.243 148.117 151.943C148.645 151.643 149.245 151.493 149.917 151.493C150.541 151.493 151.105 151.637 151.609 151.925C152.125 152.213 152.527 152.651 152.815 153.239C153.115 153.815 153.265 154.541 153.265 155.417V160.619C153.265 160.739 153.223 160.841 153.139 160.925C153.067 160.997 152.971 161.033 152.851 161.033H152.005C151.885 161.033 151.783 160.997 151.699 160.925C151.627 160.841 151.591 160.739 151.591 160.619V155.579C151.591 154.907 151.495 154.379 151.303 153.995C151.111 153.611 150.853 153.341 150.529 153.185C150.205 153.029 149.851 152.951 149.467 152.951C149.155 152.951 148.837 153.029 148.513 153.185C148.189 153.341 147.919 153.611 147.703 153.995C147.499 154.379 147.397 154.907 147.397 155.579V160.619C147.397 160.739 147.355 160.841 147.271 160.925C147.199 160.997 147.103 161.033 146.983 161.033H146.137C146.017 161.033 145.915 160.997 145.831 160.925C145.759 160.841 145.723 160.739 145.723 160.619V155.579C145.723 154.907 145.621 154.379 145.417 153.995C145.213 153.611 144.949 153.341 144.625 153.185C144.301 153.029 143.959 152.951 143.599 152.951C143.287 152.951 142.969 153.029 142.645 153.185C142.321 153.341 142.051 153.611 141.835 153.995C141.631 154.379 141.529 154.901 141.529 155.561V160.619C141.529 160.739 141.487 160.841 141.403 160.925C141.331 160.997 141.235 161.033 141.115 161.033H140.251ZM156.265 164.453C156.145 164.453 156.043 164.411 155.959 164.327C155.887 164.255 155.851 164.159 155.851 164.039V152.087C155.851 151.967 155.887 151.871 155.959 151.799C156.043 151.715 156.145 151.673 156.265 151.673H157.093C157.213 151.673 157.309 151.715 157.381 151.799C157.465 151.871 157.507 151.967 157.507 152.087V152.879C157.795 152.483 158.179 152.153 158.659 151.889C159.139 151.625 159.739 151.493 160.459 151.493C161.131 151.493 161.701 151.607 162.169 151.835C162.649 152.063 163.039 152.375 163.339 152.771C163.651 153.167 163.885 153.617 164.041 154.121C164.197 154.625 164.281 155.165 164.293 155.741C164.305 155.933 164.311 156.137 164.311 156.353C164.311 156.569 164.305 156.773 164.293 156.965C164.281 157.529 164.197 158.069 164.041 158.585C163.885 159.089 163.651 159.539 163.339 159.935C163.039 160.319 162.649 160.631 162.169 160.871C161.701 161.099 161.131 161.213 160.459 161.213C159.763 161.213 159.175 161.087 158.695 160.835C158.227 160.571 157.843 160.247 157.543 159.863V164.039C157.543 164.159 157.507 164.255 157.435 164.327C157.363 164.411 157.261 164.453 157.129 164.453H156.265ZM160.081 159.755C160.705 159.755 161.191 159.623 161.539 159.359C161.899 159.083 162.157 158.729 162.313 158.297C162.469 157.853 162.559 157.379 162.583 156.875C162.595 156.527 162.595 156.179 162.583 155.831C162.559 155.327 162.469 154.859 162.313 154.427C162.157 153.983 161.899 153.629 161.539 153.365C161.191 153.089 160.705 152.951 160.081 152.951C159.493 152.951 159.013 153.089 158.641 153.365C158.281 153.641 158.011 153.995 157.831 154.427C157.663 154.847 157.567 155.279 157.543 155.723C157.531 155.915 157.525 156.143 157.525 156.407C157.525 156.671 157.531 156.905 157.543 157.109C157.555 157.529 157.651 157.943 157.831 158.351C158.023 158.759 158.305 159.095 158.677 159.359C159.049 159.623 159.517 159.755 160.081 159.755ZM166.988 161.033C166.868 161.033 166.766 160.997 166.682 160.925C166.61 160.841 166.574 160.739 166.574 160.619V148.667C166.574 148.547 166.61 148.451 166.682 148.379C166.766 148.295 166.868 148.253 166.988 148.253H167.834C167.966 148.253 168.068 148.295 168.14 148.379C168.212 148.451 168.248 148.547 168.248 148.667V160.619C168.248 160.739 168.212 160.841 168.14 160.925C168.068 160.997 167.966 161.033 167.834 161.033H166.988ZM174.767 161.213C173.855 161.213 173.093 161.039 172.481 160.691C171.869 160.343 171.401 159.863 171.077 159.251C170.753 158.627 170.573 157.919 170.537 157.127C170.525 156.923 170.519 156.665 170.519 156.353C170.519 156.029 170.525 155.771 170.537 155.579C170.573 154.775 170.753 154.067 171.077 153.455C171.413 152.843 171.887 152.363 172.499 152.015C173.111 151.667 173.867 151.493 174.767 151.493C175.667 151.493 176.423 151.667 177.035 152.015C177.647 152.363 178.115 152.843 178.439 153.455C178.775 154.067 178.961 154.775 178.997 155.579C179.009 155.771 179.015 156.029 179.015 156.353C179.015 156.665 179.009 156.923 178.997 157.127C178.961 157.919 178.781 158.627 178.457 159.251C178.133 159.863 177.665 160.343 177.053 160.691C176.441 161.039 175.679 161.213 174.767 161.213ZM174.767 159.827C175.511 159.827 176.105 159.593 176.549 159.125C176.993 158.645 177.233 157.949 177.269 157.037C177.281 156.857 177.287 156.629 177.287 156.353C177.287 156.077 177.281 155.849 177.269 155.669C177.233 154.757 176.993 154.067 176.549 153.599C176.105 153.119 175.511 152.879 174.767 152.879C174.023 152.879 173.423 153.119 172.967 153.599C172.523 154.067 172.289 154.757 172.265 155.669C172.253 155.849 172.247 156.077 172.247 156.353C172.247 156.629 172.253 156.857 172.265 157.037C172.289 157.949 172.523 158.645 172.967 159.125C173.423 159.593 174.023 159.827 174.767 159.827ZM182.555 164.453C182.459 164.453 182.375 164.417 182.303 164.345C182.231 164.273 182.195 164.189 182.195 164.093C182.195 164.045 182.201 163.997 182.213 163.949C182.225 163.901 182.249 163.841 182.285 163.769L183.671 160.475L180.233 152.357C180.173 152.213 180.143 152.111 180.143 152.051C180.143 151.943 180.179 151.853 180.251 151.781C180.323 151.709 180.413 151.673 180.521 151.673H181.403C181.523 151.673 181.619 151.703 181.691 151.763C181.763 151.823 181.811 151.895 181.835 151.979L184.571 158.531L187.379 151.979C187.415 151.895 187.463 151.823 187.523 151.763C187.595 151.703 187.697 151.673 187.829 151.673H188.675C188.783 151.673 188.873 151.709 188.945 151.781C189.017 151.853 189.053 151.937 189.053 152.033C189.053 152.093 189.023 152.201 188.963 152.357L183.851 164.147C183.815 164.231 183.761 164.303 183.689 164.363C183.629 164.423 183.533 164.453 183.401 164.453H182.555ZM194.241 161.213C193.005 161.213 192.021 160.835 191.289 160.079C190.557 159.311 190.155 158.267 190.083 156.947C190.071 156.791 190.065 156.593 190.065 156.353C190.065 156.101 190.071 155.897 190.083 155.741C190.131 154.889 190.329 154.145 190.677 153.509C191.025 152.861 191.499 152.363 192.099 152.015C192.711 151.667 193.425 151.493 194.241 151.493C195.153 151.493 195.915 151.685 196.527 152.069C197.151 152.453 197.625 152.999 197.949 153.707C198.273 154.415 198.435 155.243 198.435 156.191V156.497C198.435 156.629 198.393 156.731 198.309 156.803C198.237 156.875 198.141 156.911 198.021 156.911H191.793C191.793 156.923 191.793 156.947 191.793 156.983C191.793 157.019 191.793 157.049 191.793 157.073C191.817 157.565 191.925 158.027 192.117 158.459C192.309 158.879 192.585 159.221 192.945 159.485C193.305 159.749 193.737 159.881 194.241 159.881C194.673 159.881 195.033 159.815 195.321 159.683C195.609 159.551 195.843 159.407 196.023 159.251C196.203 159.083 196.323 158.957 196.383 158.873C196.491 158.717 196.575 158.627 196.635 158.603C196.695 158.567 196.791 158.549 196.923 158.549H197.787C197.907 158.549 198.003 158.585 198.075 158.657C198.159 158.717 198.195 158.807 198.183 158.927C198.171 159.107 198.075 159.329 197.895 159.593C197.715 159.845 197.457 160.097 197.121 160.349C196.785 160.601 196.377 160.811 195.897 160.979C195.417 161.135 194.865 161.213 194.241 161.213ZM191.793 155.669H196.725V155.615C196.725 155.075 196.623 154.595 196.419 154.175C196.227 153.755 195.945 153.425 195.573 153.185C195.201 152.933 194.757 152.807 194.241 152.807C193.725 152.807 193.281 152.933 192.909 153.185C192.549 153.425 192.273 153.755 192.081 154.175C191.889 154.595 191.793 155.075 191.793 155.615V155.669ZM201.001 161.033C200.881 161.033 200.779 160.997 200.695 160.925C200.623 160.841 200.587 160.739 200.587 160.619V152.105C200.587 151.985 200.623 151.883 200.695 151.799C200.779 151.715 200.881 151.673 201.001 151.673H201.829C201.949 151.673 202.051 151.715 202.135 151.799C202.219 151.883 202.261 151.985 202.261 152.105V152.897C202.501 152.489 202.831 152.183 203.251 151.979C203.671 151.775 204.175 151.673 204.763 151.673H205.483C205.603 151.673 205.699 151.715 205.771 151.799C205.843 151.871 205.879 151.967 205.879 152.087V152.825C205.879 152.945 205.843 153.041 205.771 153.113C205.699 153.185 205.603 153.221 205.483 153.221H204.403C203.755 153.221 203.245 153.413 202.873 153.797C202.501 154.169 202.315 154.679 202.315 155.327V160.619C202.315 160.739 202.273 160.841 202.189 160.925C202.105 160.997 202.003 161.033 201.883 161.033H201.001Z" fill="#6F6F76"/>
<g filter="url(#filter1_d_2110_1568)">
<circle cx="145.968" cy="36.0077" r="24.0077" fill="#51C8FF"/>
</g>
<path d="M140.966 27.0048C138.204 27.0048 135.965 29.2215 135.965 31.9564C135.965 34.1641 136.84 39.4038 145.456 44.7005C145.61 44.7944 145.787 44.8441 145.968 44.8441C146.148 44.8441 146.326 44.7944 146.48 44.7005C155.096 39.4038 155.971 34.1641 155.971 31.9564C155.971 29.2215 153.731 27.0048 150.969 27.0048C148.208 27.0048 145.968 30.0058 145.968 30.0058C145.968 30.0058 143.728 27.0048 140.966 27.0048Z" stroke="white" stroke-width="2" stroke-linecap="round" stroke-linejoin="round"/>
<defs>
<filter id="filter0_d_2110_1568" x="0.935547" y="1.00773" width="300.064" height="260.06" filterUnits="userSpaceOnUse" color-interpolation-filters="sRGB">
<feFlood flood-opacity="0" result="BackgroundImageFix"/>
<feColorMatrix in="SourceAlpha" type="matrix" values="0 0 0 0 0 0 0 0 0 0 0 0 0 0 0 0 0 0 127 0" result="hardAlpha"/>
<feOffset dx="5" dy="15"/>
<feGaussianBlur stdDeviation="25"/>
<feColorMatrix type="matrix" values="0 0 0 0 0 0 0 0 0 0 0 0 0 0 0 0 0 0 0.1 0"/>
<feBlend mode="normal" in2="BackgroundImageFix" result="effect1_dropShadow_2110_1568"/>
<feBlend mode="normal" in="SourceGraphic" in2="effect1_dropShadow_2110_1568" result="shape"/>
</filter>
<filter id="filter1_d_2110_1568" x="103.96" y="0" width="88.0154" height="88.0155" filterUnits="userSpaceOnUse" color-interpolation-filters="sRGB">
<feFlood flood-opacity="0" result="BackgroundImageFix"/>
<feColorMatrix in="SourceAlpha" type="matrix" values="0 0 0 0 0 0 0 0 0 0 0 0 0 0 0 0 0 0 127 0" result="hardAlpha"/>
<feOffset dx="2" dy="8"/>
<feGaussianBlur stdDeviation="10"/>
<feColorMatrix type="matrix" values="0 0 0 0 0.317647 0 0 0 0 0.784314 0 0 0 0 1 0 0 0 0.5 0"/>
<feBlend mode="normal" in2="BackgroundImageFix" result="effect1_dropShadow_2110_1568"/>
<feBlend mode="normal" in="SourceGraphic" in2="effect1_dropShadow_2110_1568" result="shape"/>
</filter>
</defs>
</svg>
